<?xml version="1.0" encoding="utf-8"?>
<!-- Generator: Adobe Illustrator 20.1.0, SVG Export Plug-In . SVG Version: 6.00 Build 0)  -->
<svg version="1.1" id="Layer_1" xmlns="http://www.w3.org/2000/svg" xmlns:xlink="http://www.w3.org/1999/xlink" x="0px" y="0px"
	 width="64px" height="64px" viewBox="0 0 64 64" enable-background="new 0 0 64 64" xml:space="preserve">
<title>bluegreystripe</title>
<g id="Lines">
	<line fill="none" stroke="#00BCD4" stroke-miterlimit="10" x1="-33" y1="-33" x2="96.8" y2="96.8"/>
	<line fill="none" stroke="#00BCD4" stroke-miterlimit="10" x1="-33" y1="-29" x2="96.8" y2="100.8"/>
	<line fill="none" stroke="#00BCD4" stroke-miterlimit="10" x1="-33" y1="-37" x2="96.8" y2="92.8"/>
	<line fill="none" stroke="#00BCD4" stroke-miterlimit="10" x1="-33" y1="-41" x2="96.8" y2="88.8"/>
	<line fill="none" stroke="#00BCD4" stroke-miterlimit="10" x1="-33" y1="-45" x2="96.8" y2="84.8"/>
	<line fill="none" stroke="#00BCD4" stroke-miterlimit="10" x1="-33" y1="-49" x2="96.8" y2="80.8"/>
	<line fill="none" stroke="#00BCD4" stroke-miterlimit="10" x1="-33" y1="-53" x2="96.8" y2="76.8"/>
	<line fill="none" stroke="#00BCD4" stroke-miterlimit="10" x1="-33" y1="-57" x2="96.8" y2="72.8"/>
	<line fill="none" stroke="#00BCD4" stroke-miterlimit="10" x1="-33" y1="-61" x2="96.8" y2="68.8"/>
	<line fill="none" stroke="#00BCD4" stroke-miterlimit="10" x1="-33" y1="-65" x2="96.8" y2="64.8"/>
	<line fill="none" stroke="#00BCD4" stroke-miterlimit="10" x1="-33" y1="-69" x2="96.8" y2="60.8"/>
	<line fill="none" stroke="#00BCD4" stroke-miterlimit="10" x1="-33" y1="-73" x2="96.8" y2="56.8"/>
	<line fill="none" stroke="#00BCD4" stroke-miterlimit="10" x1="-33" y1="-77" x2="96.8" y2="52.8"/>
	<line fill="none" stroke="#00BCD4" stroke-miterlimit="10" x1="-33" y1="-81" x2="96.8" y2="48.8"/>
	<line fill="none" stroke="#00BCD4" stroke-miterlimit="10" x1="-33" y1="-85" x2="96.8" y2="44.8"/>
	<line fill="none" stroke="#00BCD4" stroke-miterlimit="10" x1="-33" y1="-89" x2="96.8" y2="40.8"/>
	<line fill="none" stroke="#00BCD4" stroke-miterlimit="10" x1="-33" y1="-93" x2="96.8" y2="36.8"/>
	<line fill="none" stroke="#00BCD4" stroke-miterlimit="10" x1="-33" y1="-97" x2="96.8" y2="32.8"/>
	<line fill="none" stroke="#00BCD4" stroke-miterlimit="10" x1="-33" y1="-105" x2="96.8" y2="24.8"/>
	<line fill="none" stroke="#00BCD4" stroke-miterlimit="10" x1="-33" y1="-113" x2="96.8" y2="16.8"/>
	<line fill="none" stroke="#00BCD4" stroke-miterlimit="10" x1="-33" y1="-121" x2="96.8" y2="8.8"/>
	<line fill="none" stroke="#00BCD4" stroke-miterlimit="10" x1="-33" y1="-129" x2="96.8" y2="0.8"/>
	<line fill="none" stroke="#00BCD4" stroke-miterlimit="10" x1="-33" y1="-25" x2="95" y2="103"/>
	<line fill="none" stroke="#00BCD4" stroke-miterlimit="10" x1="-33" y1="-21" x2="95" y2="107"/>
	<line fill="none" stroke="#00BCD4" stroke-miterlimit="10" x1="-33" y1="-17" x2="95" y2="111"/>
	<line fill="none" stroke="#00BCD4" stroke-miterlimit="10" x1="-33" y1="-13" x2="95" y2="115"/>
	<line fill="none" stroke="#00BCD4" stroke-miterlimit="10" x1="-33" y1="-9" x2="95" y2="119"/>
	<line fill="none" stroke="#00BCD4" stroke-miterlimit="10" x1="-33" y1="-5" x2="95" y2="123"/>
	<line fill="none" stroke="#00BCD4" stroke-miterlimit="10" x1="-33" y1="-1" x2="95" y2="127"/>
	<line fill="none" stroke="#00BCD4" stroke-miterlimit="10" x1="-33" y1="3" x2="95" y2="131"/>
	<line fill="none" stroke="#00BCD4" stroke-miterlimit="10" x1="-33" y1="7" x2="95" y2="135"/>
	<line fill="none" stroke="#00BCD4" stroke-miterlimit="10" x1="-33" y1="11" x2="95" y2="139"/>
	<line fill="none" stroke="#00BCD4" stroke-miterlimit="10" x1="-33" y1="15" x2="95" y2="143"/>
	<line fill="none" stroke="#00BCD4" stroke-miterlimit="10" x1="-33" y1="19" x2="95" y2="147"/>
	<line fill="none" stroke="#00BCD4" stroke-miterlimit="10" x1="-33" y1="23" x2="95" y2="151"/>
	<line fill="none" stroke="#00BCD4" stroke-miterlimit="10" x1="-33" y1="27" x2="95" y2="155"/>
	<line fill="none" stroke="#00BCD4" stroke-miterlimit="10" x1="-33" y1="31" x2="95" y2="159"/>
	<line fill="none" stroke="#00BCD4" stroke-miterlimit="10" x1="-33" y1="39" x2="95" y2="167"/>
	<line fill="none" stroke="#00BCD4" stroke-miterlimit="10" x1="-33" y1="47" x2="95" y2="175"/>
	<line fill="none" stroke="#00BCD4" stroke-miterlimit="10" x1="-33" y1="55" x2="95" y2="183"/>
	<line fill="none" stroke="#00BCD4" stroke-miterlimit="10" x1="-33" y1="63" x2="95" y2="191"/>
</g>
</svg>
