<svg id="Layer_1" data-name="Layer 1" xmlns="http://www.w3.org/2000/svg" width="64" height="64" viewBox="0 0 64 64"><title>bluegreystripe</title><g id="Lines"><line x1="-33" y1="-33" x2="96.77" y2="96.77" fill="none" stroke="#5c6666" stroke-miterlimit="10"/><line x1="-33" y1="-29" x2="96.77" y2="100.77" fill="none" stroke="#5c6666" stroke-miterlimit="10"/><line x1="-33" y1="-37" x2="96.77" y2="92.77" fill="none" stroke="#5c6666" stroke-miterlimit="10"/><line x1="-33" y1="-41" x2="96.77" y2="88.77" fill="none" stroke="#5c6666" stroke-miterlimit="10"/><line x1="-33" y1="-45" x2="96.77" y2="84.77" fill="none" stroke="#5c6666" stroke-miterlimit="10"/><line x1="-33" y1="-49" x2="96.77" y2="80.77" fill="none" stroke="#5c6666" stroke-miterlimit="10"/><line x1="-33" y1="-53" x2="96.77" y2="76.77" fill="none" stroke="#5c6666" stroke-miterlimit="10"/><line x1="-33" y1="-57" x2="96.77" y2="72.77" fill="none" stroke="#5c6666" stroke-miterlimit="10"/><line x1="-33" y1="-61" x2="96.77" y2="68.77" fill="none" stroke="#5c6666" stroke-miterlimit="10"/><line x1="-33" y1="-65" x2="96.77" y2="64.77" fill="none" stroke="#5c6666" stroke-miterlimit="10"/><line x1="-33" y1="-69" x2="96.77" y2="60.77" fill="none" stroke="#5c6666" stroke-miterlimit="10"/><line x1="-33" y1="-73" x2="96.77" y2="56.77" fill="none" stroke="#5c6666" stroke-miterlimit="10"/><line x1="-33" y1="-77" x2="96.77" y2="52.77" fill="none" stroke="#5c6666" stroke-miterlimit="10"/><line x1="-33" y1="-81" x2="96.77" y2="48.77" fill="none" stroke="#5c6666" stroke-miterlimit="10"/><line x1="-33" y1="-85" x2="96.77" y2="44.77" fill="none" stroke="#5c6666" stroke-miterlimit="10"/><line x1="-33" y1="-89" x2="96.77" y2="40.77" fill="none" stroke="#5c6666" stroke-miterlimit="10"/><line x1="-33" y1="-93" x2="96.77" y2="36.77" fill="none" stroke="#5c6666" stroke-miterlimit="10"/><line x1="-33" y1="-97" x2="96.77" y2="32.77" fill="none" stroke="#5c6666" stroke-miterlimit="10"/><line x1="-33" y1="-105" x2="96.77" y2="24.77" fill="none" stroke="#5c6666" stroke-miterlimit="10"/><line x1="-33" y1="-113" x2="96.77" y2="16.77" fill="none" stroke="#5c6666" stroke-miterlimit="10"/><line x1="-33" y1="-121" x2="96.77" y2="8.77" fill="none" stroke="#5c6666" stroke-miterlimit="10"/><line x1="-33" y1="-129" x2="96.77" y2="0.77" fill="none" stroke="#5c6666" stroke-miterlimit="10"/><line x1="-33" y1="-25" x2="94.99" y2="102.99" fill="none" stroke="#5c6666" stroke-miterlimit="10"/><line x1="-33" y1="-21" x2="94.99" y2="106.99" fill="none" stroke="#5c6666" stroke-miterlimit="10"/><line x1="-33" y1="-17" x2="94.99" y2="110.99" fill="none" stroke="#5c6666" stroke-miterlimit="10"/><line x1="-33" y1="-13" x2="94.99" y2="114.99" fill="none" stroke="#5c6666" stroke-miterlimit="10"/><line x1="-33" y1="-9" x2="94.99" y2="118.99" fill="none" stroke="#5c6666" stroke-miterlimit="10"/><line x1="-33" y1="-5" x2="94.99" y2="122.99" fill="none" stroke="#5c6666" stroke-miterlimit="10"/><line x1="-33" y1="-1" x2="94.99" y2="126.99" fill="none" stroke="#5c6666" stroke-miterlimit="10"/><line x1="-33" y1="3" x2="94.99" y2="130.99" fill="none" stroke="#5c6666" stroke-miterlimit="10"/><line x1="-33" y1="7" x2="94.99" y2="134.99" fill="none" stroke="#5c6666" stroke-miterlimit="10"/><line x1="-33" y1="11" x2="94.99" y2="138.99" fill="none" stroke="#5c6666" stroke-miterlimit="10"/><line x1="-33" y1="15" x2="94.99" y2="142.99" fill="none" stroke="#5c6666" stroke-miterlimit="10"/><line x1="-33" y1="19" x2="94.99" y2="146.99" fill="none" stroke="#5c6666" stroke-miterlimit="10"/><line x1="-33" y1="23" x2="94.99" y2="150.99" fill="none" stroke="#5c6666" stroke-miterlimit="10"/><line x1="-33" y1="27" x2="94.99" y2="154.99" fill="none" stroke="#5c6666" stroke-miterlimit="10"/><line x1="-33" y1="31" x2="94.99" y2="158.99" fill="none" stroke="#5c6666" stroke-miterlimit="10"/><line x1="-33" y1="39" x2="94.99" y2="166.99" fill="none" stroke="#5c6666" stroke-miterlimit="10"/><line x1="-33" y1="47" x2="94.99" y2="174.99" fill="none" stroke="#5c6666" stroke-miterlimit="10"/><line x1="-33" y1="55" x2="94.99" y2="182.99" fill="none" stroke="#5c6666" stroke-miterlimit="10"/><line x1="-33" y1="63" x2="94.99" y2="190.99" fill="none" stroke="#5c6666" stroke-miterlimit="10"/></g></svg>