<?xml version="1.0" encoding="utf-8"?>
<!-- Generator: Adobe Illustrator 21.0.2, SVG Export Plug-In . SVG Version: 6.00 Build 0)  -->
<svg version="1.1" id="Layer_1" xmlns="http://www.w3.org/2000/svg" xmlns:xlink="http://www.w3.org/1999/xlink" x="0px" y="0px"
	 width="64px" height="64px" viewBox="0 0 64 64" enable-background="new 0 0 64 64" xml:space="preserve">
<title>bluegreystripe</title>
<g id="Lines">
	<line fill="none" stroke="#FFEB3B" stroke-width="0.5" stroke-miterlimit="10" x1="-33" y1="-33" x2="96.8" y2="96.8"/>
	<line fill="none" stroke="#FFEB3B" stroke-width="0.5" stroke-miterlimit="10" x1="-33" y1="-29" x2="96.8" y2="100.8"/>
	<line fill="none" stroke="#FFEB3B" stroke-width="0.5" stroke-miterlimit="10" x1="-33" y1="-37" x2="96.8" y2="92.8"/>
	<line fill="none" stroke="#FFEB3B" stroke-width="0.5" stroke-miterlimit="10" x1="-33" y1="-41" x2="96.8" y2="88.8"/>
	<line fill="none" stroke="#FFEB3B" stroke-width="0.5" stroke-miterlimit="10" x1="-33" y1="-45" x2="96.8" y2="84.8"/>
	<line fill="none" stroke="#FFEB3B" stroke-width="0.5" stroke-miterlimit="10" x1="-33" y1="-49" x2="96.8" y2="80.8"/>
	<line fill="none" stroke="#FFEB3B" stroke-width="0.5" stroke-miterlimit="10" x1="-33" y1="-53" x2="96.8" y2="76.8"/>
	<line fill="none" stroke="#FFEB3B" stroke-width="0.5" stroke-miterlimit="10" x1="-33" y1="-57" x2="96.8" y2="72.8"/>
	<line fill="none" stroke="#FFEB3B" stroke-width="0.5" stroke-miterlimit="10" x1="-33" y1="-61" x2="96.8" y2="68.8"/>
	<line fill="none" stroke="#FFEB3B" stroke-width="0.5" stroke-miterlimit="10" x1="-33" y1="-65" x2="96.8" y2="64.8"/>
	<line fill="none" stroke="#FFEB3B" stroke-width="0.5" stroke-miterlimit="10" x1="-33" y1="-69" x2="96.8" y2="60.8"/>
	<line fill="none" stroke="#FFEB3B" stroke-width="0.5" stroke-miterlimit="10" x1="-33" y1="-73" x2="96.8" y2="56.8"/>
	<line fill="none" stroke="#FFEB3B" stroke-width="0.5" stroke-miterlimit="10" x1="-33" y1="-77" x2="96.8" y2="52.8"/>
	<line fill="none" stroke="#FFEB3B" stroke-width="0.5" stroke-miterlimit="10" x1="-33" y1="-81" x2="96.8" y2="48.8"/>
	<line fill="none" stroke="#FFEB3B" stroke-width="0.5" stroke-miterlimit="10" x1="-33" y1="-85" x2="96.8" y2="44.8"/>
	<line fill="none" stroke="#FFEB3B" stroke-width="0.5" stroke-miterlimit="10" x1="-33" y1="-89" x2="96.8" y2="40.8"/>
	<line fill="none" stroke="#FFEB3B" stroke-width="0.5" stroke-miterlimit="10" x1="-33" y1="-93" x2="96.8" y2="36.8"/>
	<line fill="none" stroke="#FFEB3B" stroke-width="0.5" stroke-miterlimit="10" x1="-33" y1="-97" x2="96.8" y2="32.8"/>
	<line fill="none" stroke="#FFEB3B" stroke-width="0.5" stroke-miterlimit="10" x1="-33" y1="-105" x2="96.8" y2="24.8"/>
	<line fill="none" stroke="#FFEB3B" stroke-width="0.5" stroke-miterlimit="10" x1="-33" y1="-113" x2="96.8" y2="16.8"/>
	<line fill="none" stroke="#FFEB3B" stroke-width="0.5" stroke-miterlimit="10" x1="-33" y1="-121" x2="96.8" y2="8.8"/>
	<line fill="none" stroke="#FFEB3B" stroke-width="0.5" stroke-miterlimit="10" x1="-33" y1="-129" x2="96.8" y2="0.8"/>
	<line fill="none" stroke="#FFEB3B" stroke-width="0.5" stroke-miterlimit="10" x1="-33" y1="-25" x2="95" y2="103"/>
	<line fill="none" stroke="#FFEB3B" stroke-width="0.5" stroke-miterlimit="10" x1="-33" y1="-21" x2="95" y2="107"/>
	<line fill="none" stroke="#FFEB3B" stroke-width="0.5" stroke-miterlimit="10" x1="-33" y1="-17" x2="95" y2="111"/>
	<line fill="none" stroke="#FFEB3B" stroke-width="0.5" stroke-miterlimit="10" x1="-33" y1="-13" x2="95" y2="115"/>
	<line fill="none" stroke="#FFEB3B" stroke-width="0.5" stroke-miterlimit="10" x1="-33" y1="-9" x2="95" y2="119"/>
	<line fill="none" stroke="#FFEB3B" stroke-width="0.5" stroke-miterlimit="10" x1="-33" y1="-5" x2="95" y2="123"/>
	<line fill="none" stroke="#FFEB3B" stroke-width="0.5" stroke-miterlimit="10" x1="-33" y1="-1" x2="95" y2="127"/>
	<line fill="none" stroke="#FFEB3B" stroke-width="0.5" stroke-miterlimit="10" x1="-33" y1="3" x2="95" y2="131"/>
	<line fill="none" stroke="#FFEB3B" stroke-width="0.5" stroke-miterlimit="10" x1="-33" y1="7" x2="95" y2="135"/>
	<line fill="none" stroke="#FFEB3B" stroke-width="0.5" stroke-miterlimit="10" x1="-33" y1="11" x2="95" y2="139"/>
	<line fill="none" stroke="#FFEB3B" stroke-width="0.5" stroke-miterlimit="10" x1="-33" y1="15" x2="95" y2="143"/>
	<line fill="none" stroke="#FFEB3B" stroke-width="0.5" stroke-miterlimit="10" x1="-33" y1="19" x2="95" y2="147"/>
	<line fill="none" stroke="#FFEB3B" stroke-width="0.5" stroke-miterlimit="10" x1="-33" y1="23" x2="95" y2="151"/>
	<line fill="none" stroke="#FFEB3B" stroke-width="0.5" stroke-miterlimit="10" x1="-33" y1="27" x2="95" y2="155"/>
	<line fill="none" stroke="#FFEB3B" stroke-width="0.5" stroke-miterlimit="10" x1="-33" y1="31" x2="95" y2="159"/>
	<line fill="none" stroke="#FFEB3B" stroke-width="0.5" stroke-miterlimit="10" x1="-33" y1="39" x2="95" y2="167"/>
	<line fill="none" stroke="#FFEB3B" stroke-width="0.5" stroke-miterlimit="10" x1="-33" y1="47" x2="95" y2="175"/>
	<line fill="none" stroke="#FFEB3B" stroke-width="0.5" stroke-miterlimit="10" x1="-33" y1="55" x2="95" y2="183"/>
	<line fill="none" stroke="#FFEB3B" stroke-width="0.5" stroke-miterlimit="10" x1="-33" y1="63" x2="95" y2="191"/>
</g>
<title>bluegreystripe</title>
<g id="Lines_1_">
	<line fill="none" stroke="#FFEB3B" stroke-width="0.5" stroke-miterlimit="10" x1="-33" y1="96.8" x2="96.8" y2="-33"/>
	<line fill="none" stroke="#FFEB3B" stroke-width="0.5" stroke-miterlimit="10" x1="-33" y1="100.8" x2="96.8" y2="-29"/>
	<line fill="none" stroke="#FFEB3B" stroke-width="0.5" stroke-miterlimit="10" x1="-33" y1="92.8" x2="96.8" y2="-37"/>
	<line fill="none" stroke="#FFEB3B" stroke-width="0.5" stroke-miterlimit="10" x1="-33" y1="88.8" x2="96.8" y2="-41"/>
	<line fill="none" stroke="#FFEB3B" stroke-width="0.5" stroke-miterlimit="10" x1="-33" y1="84.8" x2="96.8" y2="-45"/>
	<line fill="none" stroke="#FFEB3B" stroke-width="0.5" stroke-miterlimit="10" x1="-33" y1="80.8" x2="96.8" y2="-49"/>
	<line fill="none" stroke="#FFEB3B" stroke-width="0.5" stroke-miterlimit="10" x1="-33" y1="76.8" x2="96.8" y2="-53"/>
	<line fill="none" stroke="#FFEB3B" stroke-width="0.5" stroke-miterlimit="10" x1="-33" y1="72.8" x2="96.8" y2="-57"/>
	<line fill="none" stroke="#FFEB3B" stroke-width="0.5" stroke-miterlimit="10" x1="-33" y1="68.8" x2="96.8" y2="-61"/>
	<line fill="none" stroke="#FFEB3B" stroke-width="0.5" stroke-miterlimit="10" x1="-33" y1="64.8" x2="96.8" y2="-65"/>
	<line fill="none" stroke="#FFEB3B" stroke-width="0.5" stroke-miterlimit="10" x1="-33" y1="60.8" x2="96.8" y2="-69"/>
	<line fill="none" stroke="#FFEB3B" stroke-width="0.5" stroke-miterlimit="10" x1="-33" y1="56.8" x2="96.8" y2="-73"/>
	<line fill="none" stroke="#FFEB3B" stroke-width="0.5" stroke-miterlimit="10" x1="-33" y1="52.8" x2="96.8" y2="-77"/>
	<line fill="none" stroke="#FFEB3B" stroke-width="0.5" stroke-miterlimit="10" x1="-33" y1="48.8" x2="96.8" y2="-81"/>
	<line fill="none" stroke="#FFEB3B" stroke-width="0.5" stroke-miterlimit="10" x1="-33" y1="44.8" x2="96.8" y2="-85"/>
	<line fill="none" stroke="#FFEB3B" stroke-width="0.5" stroke-miterlimit="10" x1="-33" y1="40.8" x2="96.8" y2="-89"/>
	<line fill="none" stroke="#FFEB3B" stroke-width="0.5" stroke-miterlimit="10" x1="-33" y1="36.8" x2="96.8" y2="-93"/>
	<line fill="none" stroke="#FFEB3B" stroke-width="0.5" stroke-miterlimit="10" x1="-33" y1="32.8" x2="96.8" y2="-97"/>
	<line fill="none" stroke="#FFEB3B" stroke-width="0.5" stroke-miterlimit="10" x1="-33" y1="24.8" x2="96.8" y2="-105"/>
	<line fill="none" stroke="#FFEB3B" stroke-width="0.5" stroke-miterlimit="10" x1="-33" y1="16.8" x2="96.8" y2="-113"/>
	<line fill="none" stroke="#FFEB3B" stroke-width="0.5" stroke-miterlimit="10" x1="-33" y1="8.8" x2="96.8" y2="-121"/>
	<line fill="none" stroke="#FFEB3B" stroke-width="0.5" stroke-miterlimit="10" x1="-33" y1="0.8" x2="96.8" y2="-129"/>
	<line fill="none" stroke="#FFEB3B" stroke-width="0.5" stroke-miterlimit="10" x1="-31.2" y1="103" x2="96.8" y2="-25"/>
	<line fill="none" stroke="#FFEB3B" stroke-width="0.5" stroke-miterlimit="10" x1="-31.2" y1="107" x2="96.8" y2="-21"/>
	<line fill="none" stroke="#FFEB3B" stroke-width="0.5" stroke-miterlimit="10" x1="-31.2" y1="111" x2="96.8" y2="-17"/>
	<line fill="none" stroke="#FFEB3B" stroke-width="0.5" stroke-miterlimit="10" x1="-31.2" y1="115" x2="96.8" y2="-13"/>
	<line fill="none" stroke="#FFEB3B" stroke-width="0.5" stroke-miterlimit="10" x1="-31.2" y1="119" x2="96.8" y2="-9"/>
	<line fill="none" stroke="#FFEB3B" stroke-width="0.5" stroke-miterlimit="10" x1="-31.2" y1="123" x2="96.8" y2="-5"/>
	<line fill="none" stroke="#FFEB3B" stroke-width="0.5" stroke-miterlimit="10" x1="-31.2" y1="127" x2="96.8" y2="-1"/>
	<line fill="none" stroke="#FFEB3B" stroke-width="0.5" stroke-miterlimit="10" x1="-31.2" y1="131" x2="96.8" y2="3"/>
	<line fill="none" stroke="#FFEB3B" stroke-width="0.5" stroke-miterlimit="10" x1="-31.2" y1="135" x2="96.8" y2="7"/>
	<line fill="none" stroke="#FFEB3B" stroke-width="0.5" stroke-miterlimit="10" x1="-31.2" y1="139" x2="96.8" y2="11"/>
	<line fill="none" stroke="#FFEB3B" stroke-width="0.5" stroke-miterlimit="10" x1="-31.2" y1="143" x2="96.8" y2="15"/>
	<line fill="none" stroke="#FFEB3B" stroke-width="0.5" stroke-miterlimit="10" x1="-31.2" y1="147" x2="96.8" y2="19"/>
	<line fill="none" stroke="#FFEB3B" stroke-width="0.5" stroke-miterlimit="10" x1="-31.2" y1="151" x2="96.8" y2="23"/>
	<line fill="none" stroke="#FFEB3B" stroke-width="0.5" stroke-miterlimit="10" x1="-31.2" y1="155" x2="96.8" y2="27"/>
	<line fill="none" stroke="#FFEB3B" stroke-width="0.5" stroke-miterlimit="10" x1="-31.2" y1="159" x2="96.8" y2="31"/>
	<line fill="none" stroke="#FFEB3B" stroke-width="0.5" stroke-miterlimit="10" x1="-31.2" y1="167" x2="96.8" y2="39"/>
	<line fill="none" stroke="#FFEB3B" stroke-width="0.5" stroke-miterlimit="10" x1="-31.2" y1="175" x2="96.8" y2="47"/>
	<line fill="none" stroke="#FFEB3B" stroke-width="0.5" stroke-miterlimit="10" x1="-31.2" y1="183" x2="96.8" y2="55"/>
	<line fill="none" stroke="#FFEB3B" stroke-width="0.5" stroke-miterlimit="10" x1="-31.2" y1="191" x2="96.8" y2="63"/>
</g>
</svg>
