<?xml version="1.0" encoding="utf-8"?>
<!-- Generator: Adobe Illustrator 13.0.2, SVG Export Plug-In . SVG Version: 6.00 Build 14948)  -->
<!DOCTYPE svg PUBLIC "-//W3C//DTD SVG 1.1//EN" "http://www.w3.org/Graphics/SVG/1.1/DTD/svg11.dtd">
<svg version="1.1" xmlns="http://www.w3.org/2000/svg" xmlns:xlink="http://www.w3.org/1999/xlink" x="0px" y="0px" width="40px"
	 height="40px" viewBox="14.55 -0.757 40 40" enable-background="new 14.55 -0.757 40 40" xml:space="preserve">
<g id="Layer_2_1_" opacity="0.17">
	<ellipse cx="29.536" cy="37.135" rx="11.264" ry="2.017"/>
</g>
<g id="Layer_1">
	<g id="Layer_1_1_">
		<g>
			<g>
				<path fill="#FAFAEB" stroke="#FAFAEB" d="M28.01,7.223c0.052,0,0.115,0.021,0.164,0.021c0.417,0.071,0.843,0.135,1.239,0.252
					c0.021,0.013,0.008,0.041,0,0.062c-0.381,0.043-0.719,0.18-1.1,0.208c-0.11,0-0.216-0.016-0.306-0.078
					c-0.118-0.106-0.126-0.286-0.081-0.424C27.945,7.232,27.975,7.223,28.01,7.223 M28.01,6.973c-0.131,0-0.24,0.061-0.301,0.168
					c-0.104,0.304-0.044,0.573,0.132,0.733c0.177,0.128,0.345,0.145,0.474,0.145C28.558,8,28.761,7.95,28.958,7.903
					c0.157-0.038,0.313-0.077,0.481-0.096l0.15-0.018l0.059-0.146c0.072-0.183-0.016-0.311-0.111-0.363l-0.026-0.016l-0.027-0.009
					c-0.358-0.105-0.737-0.169-1.104-0.23l-0.163-0.027l0,0c0,0-0.021-0.002-0.038-0.005S28.14,6.988,28.14,6.988l0,0
					C28.096,6.98,28.051,6.973,28.01,6.973L28.01,6.973z"/>
			</g>
			<g>
				<path fill="#FAFAEB" stroke="#FAFAEB" d="M27.09,14.864c0.037,0,0.075,0,0.089,0.036v0.071c-0.247,0.353-0.449,0.701-0.627,1.09
					c-0.353,0.76-0.597,1.592-0.629,2.421c-0.007,0.175-0.003,0.348,0.009,0.521c0.043,0.771,0.226,1.488,0.521,2.16
					c0.175,0.398,0.392,0.78,0.646,1.148c0.089,0.101,0.149,0.229,0.254,0.309c0.361,0.467,0.805,0.869,1.272,1.227h0.001
					c0.259,0.193,0.525,0.377,0.795,0.547c0.061,0.05,0.179,0.094,0.164,0.173c-0.033,0.021-0.066,0.027-0.102,0.027
					c-0.104,0-0.217-0.077-0.316-0.102c-0.517-0.157-1.021-0.375-1.495-0.648c-0.716-0.413-1.361-0.958-1.859-1.616
					c-0.249-0.325-0.458-0.684-0.622-1.062c-0.357-0.838-0.497-1.779-0.37-2.68c0.058-0.403,0.166-0.799,0.333-1.173
					c0.231-0.508,0.53-1.012,0.875-1.448C26.351,15.51,26.664,15.135,27.09,14.864 M27.09,14.614h-0.072l-0.062,0.039
					c-0.406,0.259-0.708,0.595-1.001,0.919l-0.109,0.121c-0.355,0.453-0.671,0.971-0.917,1.513
					c-0.174,0.392-0.293,0.809-0.354,1.242c-0.132,0.926,0.007,1.926,0.387,2.812c0.17,0.396,0.39,0.771,0.653,1.116
					c0.5,0.662,1.148,1.229,1.932,1.684c0.487,0.279,1.007,0.507,1.547,0.672c0.046,0.011,0.073,0.022,0.101,0.036
					c0.078,0.032,0.177,0.074,0.29,0.074c0.085,0,0.164-0.021,0.235-0.067l0.09-0.06l0.021-0.104
					c0.043-0.227-0.147-0.347-0.221-0.394l-0.01-0.009l-0.046-0.028c-0.287-0.181-0.542-0.356-0.779-0.534
					c-0.51-0.388-0.909-0.771-1.227-1.181l-0.021-0.024l-0.026-0.021c-0.033-0.022-0.068-0.073-0.106-0.129
					c-0.035-0.05-0.068-0.1-0.108-0.145c-0.23-0.337-0.439-0.709-0.604-1.084c-0.292-0.66-0.46-1.358-0.5-2.073
					c-0.012-0.168-0.015-0.333-0.008-0.498c0.029-0.739,0.233-1.521,0.604-2.326c0.174-0.374,0.365-0.708,0.605-1.052l0.046-0.063
					v-0.077V14.9v-0.049l-0.019-0.045C27.376,14.719,27.292,14.614,27.09,14.614L27.09,14.614z"/>
			</g>
			<g>
				<path fill="#FAFAEB" stroke="#FAFAEB" d="M26.135,7.988c0.715,0,1.067,0.032,1.067,0.253c0,0.312-0.688,0.475-1.294,0.559
					c0.034-0.098,0.09-0.271,0.125-0.449c0.026-0.142,0.041-0.165,0.05-0.361C26.101,7.988,26.118,7.988,26.135,7.988 M26.135,7.738
					h-0.052h-0.238l-0.012,0.238c-0.006,0.138-0.016,0.178-0.03,0.253L25.788,8.3c-0.031,0.156-0.08,0.316-0.115,0.414l-0.142,0.391
					l0.409-0.059c1.044-0.144,1.512-0.393,1.512-0.806C27.452,7.738,26.812,7.738,26.135,7.738L26.135,7.738z"/>
			</g>
			<g>
				<path fill="#FAFAEB" stroke="#FAFAEB" d="M31.949,38.238h-0.243c-0.225,0-0.431-0.126-0.542-0.33
					c-0.076-0.146-0.122-0.377,0.087-0.653c0.035-0.045,0.074-0.082,0.117-0.111c-0.272,0.027-0.525,0.111-0.649,0.343
					c0.004,0.019-0.013,0.097-0.084,0.144c-0.015,0-0.027,0-0.039,0c-0.2,0-0.317-0.07-0.386-0.181
					c-0.107-0.15-0.103-0.39-0.047-0.547c0.177-0.331,0.495-0.527,0.837-0.527l0.105-0.004l0.113,0.004l0.072,0.002
					c-0.014-0.104,0.008-0.214,0.06-0.305c0.186-0.198,0.402-0.282,0.69-0.282c0.216,0,0.443,0.05,0.645,0.091
					c0.091,0.021,0.178,0.039,0.257,0.054c0.161,0.041,0.311,0.095,0.46,0.148c0.15,0.053,0.305,0.106,0.455,0.146
					c0.084,0.023,0.198,0.029,0.301,0.037c0.002,0,0.004,0,0.006,0c0.027,0,0.066-0.014,0.134-0.097
					c0.004-0.065-0.051-0.167-0.146-0.315c-0.056-0.088-0.109-0.181-0.146-0.286c-0.148-0.301-0.292-0.624-0.424-0.95l-0.07-0.173
					H33.7h1.401h0.097l0.023,0.093c0.053,0.189,0.109,0.379,0.169,0.571c0.06,0.104,0.109,0.245,0.161,0.383
					c0.111,0.293,0.216,0.57,0.466,0.758c0.183,0.12,0.42,0.174,0.772,0.174l0.221-0.007c0.193-0.008,0.328-0.016,0.463-0.016
					c0.476,0,0.816,0.09,1.076,0.288c0.115,0.107,0.173,0.182,0.204,0.299c0.097,0.455-0.321,0.771-0.458,0.876
					c-0.062,0.041-0.163,0.104-0.282,0.104h-0.089l-0.062-0.086c-0.043-0.116-0.16-0.229-0.321-0.301
					c-0.127-0.062-0.154-0.076-0.34-0.115c-0.564-0.112-1.234-0.172-1.99-0.172c-0.521,0-1.039,0.027-1.523,0.066
					c-0.633,0.06-1.189,0.136-1.632,0.468c-0.087,0.082-0.143,0.189-0.13,0.266L31.949,38.238L31.949,38.238z"/>
				<path fill="#FAFAEB" stroke="#FAFAEB" d="M35.101,34.567c0.054,0.19,0.109,0.383,0.169,0.575
					c0.209,0.399,0.271,0.901,0.672,1.205c0.247,0.159,0.55,0.196,0.855,0.196c0.073,0,0.146-0.002,0.22-0.005
					c0.019,0.001,0.03,0.001,0.04,0.001c0.021,0,0.027-0.001,0.027-0.001c0.126-0.01,0.259-0.017,0.392-0.017
					c0.356,0,0.721,0.053,0.998,0.262c0.093,0.09,0.134,0.144,0.157,0.229c0.067,0.309-0.165,0.56-0.411,0.744
					c-0.059,0.037-0.128,0.081-0.205,0.081c-0.011,0-0.021-0.001-0.034-0.003c-0.06-0.171-0.225-0.301-0.388-0.372
					c-0.125-0.059-0.117-0.071-0.367-0.124c-0.628-0.126-1.324-0.174-2.017-0.174c-0.522,0-1.043,0.027-1.531,0.067
					c-0.611,0.058-1.217,0.129-1.695,0.489c-0.109,0.104-0.199,0.25-0.179,0.387c-0.01,0.01-0.016,0.014-0.021,0.014
					c-0.015,0-0.027-0.013-0.074-0.014c-0.194,0-0.353-0.117-0.435-0.267c-0.097-0.188-0.038-0.365,0.075-0.518
					c0.089-0.115,0.231-0.165,0.344-0.258c0.017-0.036-0.021-0.064-0.053-0.071c-0.396,0.007-0.837,0.063-1.031,0.423
					c-0.007,0.043-0.014,0.079-0.044,0.102c-0.097-0.007-0.192-0.059-0.247-0.146c-0.082-0.114-0.082-0.308-0.035-0.438
					c0.139-0.261,0.404-0.443,0.719-0.443c0.006,0,0.013,0,0.02,0c0.026-0.003,0.055-0.004,0.08-0.004
					c0.038,0,0.076,0.002,0.114,0.004c0.038,0.003,0.075,0.005,0.111,0.005c0.044,0,0.087-0.003,0.128-0.013
					c-0.055-0.114-0.055-0.251,0.009-0.358c0.157-0.166,0.362-0.219,0.58-0.219c0.299,0,0.624,0.1,0.883,0.142
					c0.298,0.077,0.597,0.216,0.903,0.293c0.098,0.028,0.225,0.035,0.336,0.044c0.004,0,0.008,0.001,0.012,0.001
					c0.092,0,0.17-0.083,0.22-0.146c0.067-0.271-0.188-0.468-0.269-0.719c-0.154-0.315-0.297-0.639-0.429-0.961L35.101,34.567
					 M35.291,34.317h-0.19l-1.401,0.001h-0.372l0.141,0.345c0.137,0.336,0.284,0.665,0.436,0.978
					c0.025,0.087,0.091,0.188,0.146,0.276c0.063,0.104,0.102,0.169,0.109,0.225c-0.008,0.005-0.011,0.007-0.012,0.008
					c-0.071-0.015-0.179-0.021-0.246-0.039c-0.157-0.041-0.306-0.094-0.451-0.146c-0.154-0.055-0.309-0.107-0.459-0.147
					c-0.104-0.02-0.188-0.035-0.275-0.057c-0.207-0.044-0.441-0.094-0.672-0.094c-0.319,0-0.576,0.102-0.763,0.297l-0.021,0.021
					l-0.015,0.024c-0.042,0.073-0.068,0.154-0.077,0.238c-0.023-0.001-0.045-0.002-0.068-0.002c-0.035,0-0.068,0.002-0.104,0.005
					c-0.001,0-0.002,0-0.004,0c-0.385,0-0.742,0.223-0.933,0.574c-0.082,0.228-0.085,0.507,0.056,0.701
					c0.079,0.137,0.245,0.233,0.433,0.248l0.086,0.007l0.071-0.049c0.093-0.063,0.126-0.152,0.142-0.217
					c0.045-0.07,0.111-0.125,0.201-0.166c-0.097,0.208-0.096,0.42,0.005,0.612c0.137,0.249,0.387,0.4,0.655,0.4l0.387,0.123
					l-0.043-0.413c-0.003-0.019,0.02-0.084,0.105-0.166c0.389-0.29,0.907-0.361,1.546-0.421c0.529-0.044,1.039-0.066,1.508-0.066
					c0.749,0,1.411,0.059,1.968,0.169c0.167,0.034,0.188,0.044,0.242,0.072l0.065,0.033c0.132,0.057,0.229,0.146,0.26,0.228
					l0.058,0.168l0.212,0.003c0.152,0,0.271-0.073,0.34-0.119c0.429-0.322,0.599-0.658,0.521-1.012
					c-0.043-0.168-0.128-0.26-0.229-0.354c-0.303-0.23-0.678-0.332-1.172-0.332c-0.14,0-0.276,0.007-0.411,0.018l-0.01-0.001h-0.049
					c-0.07,0.003-0.14,0.005-0.21,0.005c-0.33,0-0.551-0.049-0.718-0.155c-0.207-0.155-0.307-0.416-0.409-0.691
					c-0.054-0.145-0.109-0.287-0.178-0.42c-0.042-0.148-0.099-0.337-0.15-0.527L35.291,34.317L35.291,34.317z"/>
			</g>
			<g>
				<path fill="#FAFAEB" stroke="#FAFAEB" d="M36.54,30.125c-0.097,0-0.148-0.062-0.183-0.099l-0.039-0.043l0.008-0.062
					c0.029-0.235,0.041-0.474,0.029-0.713l-0.004-0.131h0.129h0.377h0.146l-0.022,0.146c-0.023,0.154-0.062,0.312-0.104,0.468
					l-0.002,0.004l-0.037,0.097c-0.035,0.103-0.078,0.229-0.212,0.311l-0.029,0.021L36.54,30.125L36.54,30.125z"/>
				<path fill="#FAFAEB" stroke="#FAFAEB" d="M36.86,29.206c-0.024,0.151-0.062,0.303-0.104,0.454
					c-0.052,0.122-0.067,0.258-0.195,0.338C36.554,30,36.547,30,36.541,30c-0.04,0-0.065-0.031-0.091-0.062
					c0.031-0.243,0.043-0.487,0.031-0.733L36.86,29.206 M37.157,28.956H36.86h-0.377h-0.261l0.011,0.261
					c0.012,0.234,0,0.468-0.029,0.688l-0.017,0.11l0.074,0.088c0.037,0.044,0.125,0.146,0.28,0.146h0.07l0.082-0.041
					c0.174-0.105,0.229-0.271,0.267-0.378c0.008-0.022,0.017-0.05,0.025-0.073c0.058-0.188,0.094-0.351,0.12-0.51L37.157,28.956
					L37.157,28.956z"/>
			</g>
			<g>
				<path fill="#FAFAEB" stroke="#FAFAEB" d="M21.854,38.15c-0.305,0-0.552-0.148-0.66-0.397c-0.095-0.308,0.113-0.569,0.186-0.655
					c0.072-0.079,0.157-0.145,0.243-0.198c-0.037,0.004-0.072,0.008-0.107,0.015c-0.461,0.104-0.725,0.264-0.855,0.507l-0.051,0.095
					l-0.101-0.035c-0.17-0.061-0.288-0.181-0.354-0.356c-0.07-0.233-0.002-0.48,0.184-0.649c0.239-0.175,0.54-0.251,0.933-0.251
					c0.066,0,0.132,0.002,0.196,0.006c-0.004-0.097,0.019-0.186,0.068-0.264c0.169-0.175,0.322-0.239,0.676-0.299
					c0.051-0.004,0.092-0.006,0.134-0.006c0.315,0,0.591,0.099,0.857,0.193c0.268,0.095,0.509,0.182,0.771,0.182
					c0.099,0,0.191-0.013,0.289-0.037c0.227-0.101,0.377-0.353,0.499-0.553l0.291-0.455l0.307-0.491
					c0.521-0.824,1.076-1.729,1.616-2.959l0.074-0.167c0.25-0.564,0.443-1.008,0.596-1.498c-0.406,0.305-0.884,0.592-1.44,0.592
					h-0.198l0.083-0.178c0.169-0.368,0.312-0.746,0.431-1.121l0.027-0.088h0.093l3.398-0.002h0.099l0.022,0.097
					c0.149,0.614,0.39,1.16,0.711,1.63L31.004,31l-0.326,0.011c-0.083,0-0.169-0.019-0.249-0.035
					c-0.33-0.132-0.639-0.312-0.909-0.534c-0.07,0.646-0.332,1.319-0.729,1.89c-0.474,0.678-0.979,1.346-1.488,2.011l-0.231,0.306
					c-0.354,0.468-0.711,0.938-1.053,1.411c-0.037,0.064-0.056,0.132-0.043,0.169c0.017,0.033,0.064,0.045,0.202,0.054l0.428,0.002
					c0.136-0.004,0.27-0.008,0.402-0.008c0.241,0,0.559,0.01,0.863,0.101l0.109,0.037c0.251,0.089,0.523,0.293,0.532,0.596
					c0,0.329-0.117,0.583-0.346,0.764l-0.007,0.004l-0.072,0.056c-0.093,0.049-0.177,0.095-0.274,0.095h-0.21l0.049-0.189
					c0.019-0.033,0.012-0.087-0.014-0.109c-0.264-0.208-0.629-0.264-0.979-0.306c-0.478-0.03-0.96-0.063-1.442-0.063
					c-0.165,0-0.33,0.006-0.495,0.017l-0.214,0.004c-0.705,0.019-1.432,0.039-2.069,0.249c-0.229,0.124-0.402,0.229-0.385,0.396
					l0.015,0.125l-0.118,0.102L21.854,38.15L21.854,38.15z"/>
				<path fill="#FAFAEB" stroke="#FAFAEB" d="M30.037,29.206c0.145,0.599,0.381,1.164,0.729,1.668
					c-0.025,0.008-0.056,0.012-0.087,0.012c-0.072,0-0.151-0.019-0.219-0.032c-0.39-0.151-0.746-0.39-1.046-0.677
					c-0.021,0.72-0.299,1.474-0.727,2.081c-0.542,0.779-1.13,1.542-1.715,2.312c-0.355,0.47-0.713,0.938-1.055,1.415
					c-0.045,0.078-0.089,0.187-0.062,0.279c0.067,0.156,0.264,0.129,0.412,0.147c0.245-0.002,0.492-0.016,0.737-0.016
					c0.285,0,0.565,0.019,0.831,0.096c0.048,0.015,0.061,0.018,0.104,0.035c0.202,0.073,0.441,0.237,0.448,0.48
					c0,0.251-0.074,0.485-0.297,0.66c-0.037,0.03-0.045,0.035-0.062,0.049c-0.067,0.036-0.141,0.08-0.218,0.08
					c-0.017,0-0.034-0.002-0.052-0.007c0.044-0.08,0.03-0.192-0.038-0.259c-0.291-0.23-0.672-0.295-1.053-0.338
					c-0.479-0.03-0.965-0.062-1.449-0.062c-0.168,0-0.337,0.004-0.505,0.015c-0.784,0.021-1.598,0.021-2.316,0.259
					c-0.216,0.115-0.5,0.259-0.47,0.531c0,0.027,0.03,0.058,0.006,0.086c-0.026,0.003-0.057,0.005-0.085,0.005
					c-0.226,0-0.445-0.101-0.542-0.32c-0.06-0.194,0.045-0.38,0.165-0.531c0.12-0.13,0.284-0.215,0.436-0.286
					c0.026-0.021,0.059-0.063,0.021-0.086c-0.063-0.023-0.133-0.032-0.202-0.032c-0.089,0-0.18,0.015-0.268,0.024
					c-0.367,0.086-0.732,0.237-0.912,0.566c-0.148-0.053-0.232-0.157-0.276-0.28c-0.06-0.192,0.007-0.388,0.148-0.518
					c0.238-0.17,0.542-0.219,0.851-0.219c0.118,0,0.236,0.009,0.354,0.019c-0.044-0.107-0.054-0.229,0.015-0.33
					c0.12-0.121,0.236-0.185,0.59-0.243c0.038-0.003,0.076-0.005,0.113-0.005c0.292,0,0.556,0.095,0.818,0.188
					c0.261,0.094,0.521,0.188,0.808,0.188c0.104,0,0.21-0.012,0.322-0.041c0.275-0.122,0.439-0.389,0.574-0.611
					c0.204-0.322,0.404-0.634,0.601-0.938c0.57-0.9,1.101-1.78,1.626-2.979c0.344-0.78,0.597-1.335,0.777-2.046
					c-0.464,0.366-1.008,0.798-1.666,0.798c0.171-0.368,0.315-0.749,0.437-1.136L30.037,29.206 M30.233,28.956h-0.194l-3.398,0.001
					h-0.186L26.4,29.133c-0.114,0.373-0.258,0.745-0.425,1.104l-0.165,0.354h0.393c0.455,0,0.853-0.175,1.201-0.396
					c-0.13,0.354-0.283,0.709-0.473,1.134l-0.07,0.161c-0.531,1.213-1.063,2.085-1.606,2.943L25,34.83l-0.349,0.544
					c-0.113,0.191-0.256,0.424-0.465,0.519c-0.048,0.009-0.133,0.02-0.221,0.02c-0.241,0-0.474-0.083-0.72-0.172
					c-0.271-0.097-0.568-0.205-0.906-0.205c-0.044,0-0.088,0.002-0.134,0.006c-0.397,0.064-0.573,0.143-0.747,0.316
					c-0.058,0.08-0.091,0.16-0.108,0.24c-0.025,0-0.054-0.001-0.081-0.001c-0.421,0-0.748,0.086-0.996,0.263
					c-0.245,0.222-0.328,0.52-0.24,0.796c0.076,0.22,0.226,0.369,0.431,0.441l0.201,0.069l0.102-0.188
					c0.079-0.146,0.216-0.256,0.425-0.343c-0.098,0.15-0.2,0.383-0.122,0.643c0.14,0.32,0.428,0.496,0.78,0.496
					c0.037,0,0.075-0.002,0.112-0.006l0.101-0.014l0.064-0.077c0.04-0.049,0.099-0.15,0.043-0.302
					c-0.004-0.062,0.146-0.146,0.327-0.245c0.598-0.195,1.315-0.216,2.014-0.231l0.21-0.006c0.169-0.011,0.333-0.015,0.498-0.015
					c0.48,0,0.966,0.032,1.436,0.062c0.322,0.037,0.67,0.09,0.914,0.285l-0.151,0.274l0.276,0.026
					c0.039,0.012,0.08,0.017,0.12,0.017c0.131,0,0.235-0.056,0.312-0.097l0.021-0.013l0.052-0.035l0,0c0,0,0.012-0.01,0.022-0.021
					c0.011-0.01,0.023-0.02,0.023-0.02s0,0,0,0.001c0.261-0.205,0.393-0.493,0.393-0.857c-0.01-0.371-0.323-0.61-0.613-0.718
					c-0.037-0.015-0.056-0.021-0.094-0.032c-0.348-0.102-0.677-0.111-0.927-0.111c-0.136,0-0.272,0.004-0.409,0.008
					c-0.11,0.004-0.22,0.007-0.33,0.008c-0.001-0.003-0.042-0.006-0.082-0.008c-0.021-0.002-0.047-0.003-0.071-0.006
					c0.007-0.013,0.014-0.024,0.021-0.039c0.328-0.455,0.682-0.922,1.038-1.392l0.208-0.271c0.507-0.666,1.032-1.354,1.512-2.045
					c0.367-0.523,0.619-1.136,0.721-1.731c0.237,0.173,0.492,0.313,0.756,0.416c0.106,0.027,0.209,0.051,0.31,0.051
					c0.058,0,0.111-0.008,0.16-0.021l0.326-0.101l-0.193-0.28c-0.314-0.456-0.547-0.989-0.691-1.585L30.233,28.956L30.233,28.956z"
					/>
			</g>
			<g>
				<path fill="#FAFAEB" stroke="#FAFAEB" d="M30.195,29.331h-0.156h-3.399H26.47l0.05-0.163c0.229-0.736,0.358-1.488,0.385-2.229
					l0.01-0.188l0.168,0.078c0.529,0.245,1.334,0.593,2.18,0.78c0.095,0.021,0.189,0.037,0.286,0.049
					c0.117,0.019,0.236,0.035,0.35,0.068l0.088,0.022l0.002,0.091c0.014,0.469,0.07,0.916,0.173,1.336L30.195,29.331L30.195,29.331z
					"/>
				<path fill="#FAFAEB" stroke="#FAFAEB" d="M27.031,26.941c0.692,0.321,1.434,0.617,2.201,0.789
					c0.203,0.05,0.428,0.057,0.628,0.112c0.014,0.462,0.068,0.921,0.177,1.36l-3.398,0.001
					C26.868,28.462,27.001,27.695,27.031,26.941 M26.796,26.557l-0.015,0.374c-0.029,0.734-0.157,1.477-0.383,2.198l-0.1,0.324
					h0.339l3.398-0.001h0.315l-0.074-0.309c-0.1-0.414-0.154-0.854-0.168-1.311l-0.005-0.183L29.929,27.6
					c-0.12-0.034-0.247-0.055-0.373-0.071c-0.089-0.013-0.179-0.024-0.264-0.046c-0.646-0.146-1.328-0.39-2.158-0.772L26.796,26.557
					L26.796,26.557z"/>
			</g>
			<g>
				<path fill="#FAFAEB" stroke="#FAFAEB" d="M39.247,33.286h-0.074l-0.074-0.068c-0.064-0.117-0.023-0.221,0-0.28v-0.021
					l0.024-0.086c0.371-1.19,0.373-2.299,0.008-3.59c-0.066-0.229-0.146-0.464-0.229-0.7c-0.305-0.828-0.604-1.265-1.104-1.985
					c-0.832-1.205-1.775-1.946-2.671-2.607l-0.354-0.257c-0.5-0.369-1.02-0.748-1.516-1.185l-0.323-0.282l0.445-0.026
					c0.154,0.024,0.286,0.089,0.412,0.152c0.078,0.035,0.154,0.074,0.235,0.103c0.443,0.176,0.894,0.328,1.343,0.482
					c0.694,0.234,1.413,0.479,2.084,0.799c0.881,0.418,1.544,0.896,2.082,1.503c0.976,1.008,1.503,2.457,1.439,3.975
					c-0.025,0.583-0.134,1.147-0.317,1.685c-0.232,0.75-0.642,1.452-1.05,2.099v0.004l-0.066,0.085
					C39.488,33.162,39.401,33.286,39.247,33.286L39.247,33.286z"/>
				<path fill="#FAFAEB" stroke="#FAFAEB" d="M33.365,22.32c0.225,0.035,0.41,0.179,0.628,0.25c1.114,0.439,2.316,0.758,3.407,1.272
					h0.002c0.757,0.358,1.457,0.813,2.042,1.476c1.013,1.044,1.468,2.475,1.408,3.888c-0.022,0.562-0.128,1.116-0.311,1.646
					c-0.231,0.737-0.627,1.422-1.037,2.071c-0.076,0.079-0.132,0.235-0.259,0.235c-0.015,0-0.025-0.002-0.039-0.005
					c-0.062-0.107,0.035-0.179,0.035-0.288c0.376-1.212,0.377-2.357,0.008-3.661c-0.066-0.229-0.146-0.467-0.231-0.708
					c-0.312-0.854-0.622-1.295-1.143-2.052c-0.802-1.164-1.729-1.905-2.674-2.604c-0.625-0.46-1.254-0.899-1.86-1.432
					C33.327,22.376,33.335,22.34,33.365,22.32 M33.301,22.057l-0.083,0.061c-0.123,0.089-0.166,0.251-0.104,0.396l0.021,0.052
					l0.042,0.037c0.508,0.443,1.038,0.832,1.551,1.206l0.325,0.236c0.89,0.656,1.825,1.395,2.616,2.542
					c0.536,0.778,0.814,1.187,1.114,1.996c0.084,0.234,0.159,0.466,0.226,0.69c0.358,1.266,0.356,2.351-0.007,3.519L39,32.802
					l-0.008,0.058c-0.041,0.104-0.103,0.252-0.004,0.422l0.071,0.126l0.186,0.005c0.221,0,0.338-0.17,0.399-0.261
					c0.015-0.021,0.024-0.037,0.038-0.052l0.02-0.02l0.014-0.021c0.41-0.65,0.822-1.359,1.063-2.134
					c0.188-0.541,0.297-1.116,0.321-1.709c0.064-1.552-0.475-3.034-1.478-4.07c-0.543-0.612-1.218-1.102-2.115-1.525
					c-0.677-0.32-1.396-0.563-2.092-0.803c-0.443-0.151-0.9-0.31-1.334-0.479c-0.09-0.028-0.163-0.064-0.235-0.103
					c-0.129-0.063-0.275-0.136-0.447-0.162L33.301,22.057L33.301,22.057z"/>
			</g>
			<g>
				<path fill="#FAFAEB" stroke="#FAFAEB" d="M37.548,20.968c-0.29,0-0.58-0.015-0.874-0.029c-0.222-0.014-0.432-0.053-0.642-0.09
					l-0.107-0.021l0.008-0.319c1.104-0.132,2.198-0.508,3.444-1.182l0.146-0.082l0.104,0.201c0.029,0.146-0.051,0.255-0.111,0.335
					c-0.022,0.035-0.049,0.068-0.06,0.094c-0.25,0.35-0.508,0.683-0.814,0.981C38.268,20.944,37.93,20.968,37.548,20.968
					L37.548,20.968z"/>
				<path fill="#FAFAEB" stroke="#FAFAEB" d="M39.437,19.436c0.024,0.007,0.062,0.007,0.068,0.035
					c0.03,0.144-0.121,0.241-0.165,0.363c-0.239,0.324-0.494,0.647-0.785,0.934c-0.332,0.055-0.668,0.072-1.008,0.072
					c-0.287,0-0.576-0.014-0.866-0.028c-0.254-0.016-0.494-0.063-0.731-0.106c-0.022-0.021-0.009-0.051,0-0.072
					C37.218,20.483,38.354,20.023,39.437,19.436 M39.417,19.176l-0.101,0.04c-1.23,0.669-2.312,1.041-3.396,1.169l-0.152,0.02
					l-0.056,0.151c-0.065,0.176,0.021,0.286,0.061,0.326l0.057,0.058l0.075,0.014l0.106,0.021c0.209,0.036,0.425,0.076,0.658,0.091
					c0.294,0.017,0.588,0.028,0.879,0.028c0.392,0,0.735-0.023,1.049-0.075l0.078-0.016l0.056-0.055
					c0.319-0.312,0.589-0.662,0.812-0.962l0.02-0.026l0.016-0.037c0.005-0.012,0.027-0.045,0.044-0.064
					c0.062-0.088,0.172-0.236,0.13-0.438c-0.027-0.095-0.087-0.189-0.244-0.225L39.417,19.176L39.417,19.176z"/>
			</g>
			<g>
				<path fill="#FAFAEB" stroke="#FAFAEB" d="M36.278,18.502l-0.047-0.333c0.388-0.312,0.588-0.783,0.549-1.295l-0.006-0.097
					l0.097-0.031c0.98-0.312,1.979-0.756,3.145-1.396c0.537-0.327,0.952-0.602,1.338-0.89c0.188-0.111,0.329-0.239,0.475-0.364
					c0.142-0.129,0.284-0.254,0.458-0.364c0.021-0.002,0.041-0.002,0.062-0.002c0.173,0,0.243,0.08,0.251,0.202
					c-0.078,0.429-0.282,0.738-0.485,1.023c-0.854,1.176-2.115,1.994-3.125,2.576C38.212,17.915,37.293,18.324,36.278,18.502
					L36.278,18.502z"/>
				<path fill="#FAFAEB" stroke="#FAFAEB" d="M42.37,13.837c0.058,0,0.096,0.03,0.1,0.103c-0.068,0.36-0.254,0.651-0.464,0.945
					c-0.792,1.092-1.927,1.872-3.083,2.539c-0.86,0.426-1.734,0.791-2.668,0.955c-0.015-0.014-0.015-0.035-0.015-0.049
					c0-0.036,0.072-0.021,0.066-0.063c0.441-0.354,0.636-0.869,0.6-1.4c1.104-0.352,2.149-0.847,3.167-1.406
					c0.463-0.278,0.909-0.565,1.352-0.896c0.358-0.215,0.577-0.502,0.926-0.727C42.357,13.837,42.365,13.837,42.37,13.837
					 M42.37,13.587h-0.073l-0.082,0.04c-0.183,0.117-0.33,0.247-0.472,0.373c-0.146,0.127-0.281,0.248-0.448,0.351
					c-0.497,0.371-0.982,0.673-1.354,0.896c-1.147,0.631-2.141,1.072-3.112,1.381l-0.188,0.062l0.014,0.195
					c0.034,0.479-0.145,0.899-0.504,1.188c-0.146,0.062-0.16,0.215-0.16,0.26c0,0.099,0.031,0.176,0.098,0.234l0.09,0.082
					l0.121-0.021c1.035-0.182,1.963-0.596,2.735-0.977c1.026-0.592,2.304-1.417,3.175-2.616c0.213-0.299,0.427-0.624,0.507-1.048
					l0.006-0.031l-0.002-0.031C42.708,13.726,42.564,13.587,42.37,13.587L42.37,13.587z"/>
			</g>
			<g>
				<path fill="#FAFAEB" stroke="#FAFAEB" d="M35.205,20.5l-0.162-0.294c0.331-0.168,1.098-0.629,1.021-1.31l-0.015-0.119l0.125-0.1
					c0.462-0.075,0.927-0.184,1.379-0.314v-0.002c1.006-0.3,1.991-0.746,2.93-1.33c0.074-0.045,0.146-0.101,0.22-0.154
					c0.124-0.095,0.251-0.191,0.401-0.257c0.012,0,0.021,0,0.029,0c0.129,0,0.181,0.064,0.204,0.095
					c0.062,0.206-0.008,0.312-0.066,0.395c-0.023,0.039-0.049,0.074-0.058,0.103c-0.392,0.53-0.855,0.993-1.367,1.374l-0.111,0.08
					c-0.816,0.652-1.84,1.16-3.206,1.592l-0.158,0.037C35.994,20.379,35.608,20.468,35.205,20.5L35.205,20.5z"/>
				<path fill="#FAFAEB" stroke="#FAFAEB" d="M41.164,16.736c0.041,0,0.064,0.046,0.088,0.072c0.021,0.137-0.119,0.244-0.156,0.364
					c-0.371,0.49-0.837,0.947-1.323,1.311h-0.002c-0.033,0.024-0.064,0.053-0.103,0.076c-0.948,0.752-2.046,1.219-3.174,1.578
					c-0.417,0.094-0.854,0.2-1.301,0.236l-0.098-0.016v-0.042c0.545-0.274,1.165-0.776,1.09-1.438l0.007-0.08
					c0.477-0.076,0.94-0.185,1.396-0.317h1.092h-1.092c1.046-0.312,2.034-0.77,2.961-1.344c0.201-0.123,0.38-0.31,0.604-0.401
					C41.158,16.736,41.161,16.736,41.164,16.736 M41.164,16.486h-0.051l-0.056,0.02c-0.168,0.07-0.309,0.179-0.434,0.272
					c-0.068,0.052-0.136,0.104-0.205,0.146c-0.937,0.581-1.911,1.024-2.903,1.318v0.001l0,0c-0.439,0.131-0.897,0.236-1.363,0.312
					l-0.189,0.029l-0.02,0.192l-0.007,0.08l-0.002,0.023l0.003,0.025c0.07,0.619-0.712,1.062-0.954,1.185l-0.69,0.349l0.765,0.165
					l0.1,0.016l0.028,0.005l0.03-0.003c0.409-0.033,0.799-0.122,1.175-0.208l0.158-0.035c1.401-0.442,2.435-0.959,3.275-1.626
					c0.018-0.01,0.053-0.037,0.087-0.062c0.526-0.394,1.003-0.861,1.385-1.366l0.022-0.032l0.018-0.046
					c0.005-0.013,0.027-0.047,0.043-0.07c0.061-0.091,0.152-0.229,0.121-0.409l-0.01-0.062l-0.052-0.063
					C41.407,16.598,41.321,16.486,41.164,16.486L41.164,16.486z"/>
			</g>
			<g>
				<path fill="#FAFAEB" stroke="#FAFAEB" d="M36.734,16.699l-0.041-0.253c0.022-0.086,0.08-0.148,0.129-0.204
					c0.271-0.405,0.323-0.793,0.211-1.139L36.997,15l0.101-0.047c1.208-0.561,2.353-1.21,3.396-1.934
					c1.089-0.754,2.086-1.597,2.963-2.501l0.037-0.039l0.129-0.019c0.119,0,0.208,0.07,0.226,0.179
					c-0.053,0.724-0.471,1.291-0.875,1.837c-0.218,0.265-0.434,0.506-0.66,0.732c-1.309,1.326-3.056,2.437-5.345,3.393
					L36.734,16.699L36.734,16.699z"/>
				<path fill="#FAFAEB" stroke="#FAFAEB" d="M43.623,10.585c0.047,0,0.093,0.021,0.103,0.074c-0.052,0.661-0.462,1.213-0.857,1.75
					c-0.204,0.249-0.417,0.485-0.642,0.71h-0.831h0.831c-1.496,1.517-3.396,2.566-5.306,3.364c-0.024,0-0.05,0.015-0.072,0.015
					c-0.013,0-0.022-0.005-0.033-0.021c0.023-0.096,0.119-0.159,0.175-0.245c0.224-0.353,0.289-0.782,0.161-1.17
					c1.186-0.548,2.333-1.196,3.414-1.945h0.001c1.067-0.739,2.07-1.578,2.98-2.518C43.567,10.592,43.595,10.585,43.623,10.585
					 M43.623,10.335c-0.065,0-0.132,0.017-0.188,0.043l-0.038,0.021l-0.028,0.031c-0.873,0.899-1.863,1.736-2.943,2.484
					c-1.042,0.721-2.178,1.368-3.377,1.923l-0.202,0.096l0.07,0.211c0.101,0.307,0.05,0.665-0.139,0.958
					c-0.014,0.021-0.03,0.041-0.049,0.06c-0.053,0.062-0.126,0.141-0.154,0.259l-0.078,0.312l0.353,0.021
					c0.047,0,0.084-0.011,0.105-0.017l0.013-0.004l0.05-0.015c2.309-0.963,4.069-2.082,5.388-3.419l0.421-0.425h-0.022
					c0.087-0.099,0.174-0.2,0.258-0.303c0.428-0.578,0.858-1.159,0.915-1.89l0.002-0.031l-0.005-0.031
					C43.942,10.448,43.802,10.335,43.623,10.335L43.623,10.335z"/>
			</g>
			<g>
				<path fill="#FAFAEB" stroke="#FAFAEB" d="M41.006,10.228l-0.312-0.321c0.271-0.297,0.561-0.587,0.848-0.879
					c0.499-0.503,1.017-1.022,1.438-1.593c0.949-1.122,1.634-2.37,2.23-3.557c0.065-0.154,0.131-0.318,0.194-0.485
					c0.061-0.152,0.118-0.306,0.184-0.454l0.033-0.076l0.146-0.027c0.076,0,0.146,0.039,0.175,0.105
					c0.09,0.137,0.109,0.306,0.133,0.468c0.008,0.06,0.017,0.119,0.027,0.179c0.092,0.747-0.064,1.458-0.444,2.012
					c-1.215,1.729-2.774,3.109-4.279,4.345L41.006,10.228L41.006,10.228z"/>
				<path fill="#FAFAEB" stroke="#FAFAEB" d="M45.768,2.962c0.026,0,0.051,0.013,0.062,0.033c0.109,0.181,0.104,0.41,0.146,0.618
					c0.084,0.682-0.05,1.37-0.425,1.917c-1.173,1.67-2.681,3.027-4.256,4.319l-0.368,0.278c-0.015,0-0.035,0.002-0.055,0.002
					c-0.031,0-0.063-0.005-0.086-0.029c-0.022-0.028-0.008-0.079,0-0.108c0.747-0.826,1.623-1.578,2.294-2.482
					c0.925-1.091,1.612-2.33,2.238-3.572c0.137-0.31,0.246-0.631,0.384-0.946C45.719,2.971,45.744,2.962,45.768,2.962 M45.768,2.712
					c-0.102,0-0.193,0.043-0.257,0.119L45.49,2.858L45.475,2.89c-0.065,0.153-0.128,0.312-0.188,0.468
					c-0.062,0.161-0.125,0.319-0.193,0.477c-0.588,1.167-1.267,2.409-2.202,3.514c-0.427,0.574-0.938,1.092-1.435,1.59
					c-0.291,0.293-0.581,0.584-0.854,0.886L40.561,9.87l-0.017,0.07c-0.013,0.053-0.048,0.193,0.05,0.315
					c0.053,0.062,0.138,0.124,0.281,0.124h0.004l0.053-0.002c0.085-0.003,0.161-0.113,0.207-0.113c0.006,0,0.012,0.002,0.019,0.007
					l0.293-0.225c1.518-1.242,3.085-2.631,4.309-4.374c0.396-0.578,0.562-1.318,0.468-2.091c-0.014-0.073-0.021-0.129-0.028-0.186
					c-0.021-0.168-0.049-0.358-0.154-0.533C46.001,2.778,45.892,2.712,45.768,2.712L45.768,2.712z"/>
			</g>
			<g>
				<path fill="#FAFAEB" stroke="#FAFAEB" d="M37.144,14.731l-0.173-0.259c0.214-0.277,0.277-0.674,0.163-1.005
					c-0.051-0.094-0.088-0.17-0.105-0.255l-0.014-0.086l0.154-0.088c3.421-1.96,6.101-4.167,8.011-6.585
					c0.047-0.062,0.127-0.101,0.21-0.101c0.117,0,0.211,0.076,0.236,0.187c0.008,0.229-0.058,0.409-0.117,0.583l-0.037,0.109
					c-0.359,0.834-0.863,1.619-1.59,2.48c-1.153,1.27-2.525,2.415-4.2,3.514C38.911,13.732,38.083,14.226,37.144,14.731
					L37.144,14.731z"/>
				<path fill="#FAFAEB" stroke="#FAFAEB" d="M45.388,6.479c0.052,0,0.104,0.027,0.114,0.088c0.008,0.223-0.082,0.424-0.15,0.626
					c-0.38,0.882-0.918,1.672-1.565,2.439c-1.225,1.347-2.65,2.49-4.174,3.487h-0.001c-0.818,0.541-1.669,1.035-2.526,1.498
					c-0.022-0.013-0.029-0.043-0.017-0.072c0.239-0.308,0.313-0.746,0.182-1.118c-0.038-0.079-0.083-0.157-0.101-0.236
					c0.042-0.023,0.083-0.047,0.126-0.072h0.001c2.952-1.689,5.857-3.877,8-6.587C45.304,6.498,45.347,6.479,45.388,6.479
					 M45.388,6.229c-0.123,0-0.238,0.058-0.311,0.152c-1.898,2.401-4.566,4.598-7.926,6.521l-0.066,0.038l-0.059,0.032l-0.157,0.088
					l0.033,0.178c0.021,0.097,0.062,0.179,0.098,0.252c0.116,0.312,0.06,0.657-0.13,0.902c-0.102,0.186-0.055,0.356,0.083,0.438
					l0.122,0.073l0.125-0.067c0.945-0.51,1.778-1.004,2.547-1.509c1.685-1.104,3.064-2.257,4.22-3.528
					c0.741-0.877,1.251-1.673,1.612-2.51l0.042-0.119c0.062-0.179,0.136-0.382,0.128-0.612C45.711,6.348,45.564,6.229,45.388,6.229
					L45.388,6.229z"/>
			</g>
			<path fill="#FAFAEB" stroke="#FAFAEB" d="M29.421,24.392c-0.27-0.17-0.536-0.354-0.795-0.548h-0.001
				c-0.472-0.354-0.911-0.759-1.272-1.226c-0.104-0.078-0.165-0.208-0.254-0.309c-0.254-0.368-0.47-0.75-0.646-1.148
				c-0.297-0.672-0.479-1.389-0.521-2.16c-0.012-0.173-0.016-0.347-0.009-0.521c0.033-0.829,0.277-1.662,0.629-2.421
				c0.178-0.389,0.38-0.737,0.627-1.091V14.9c-0.015-0.036-0.052-0.036-0.089-0.036c-0.426,0.271-0.74,0.646-1.062,0.998
				c-0.344,0.438-0.643,0.939-0.874,1.448c-0.167,0.375-0.275,0.77-0.333,1.173c-0.127,0.899,0.013,1.842,0.37,2.68
				c0.163,0.381,0.373,0.737,0.622,1.062c0.498,0.658,1.145,1.202,1.859,1.616c0.474,0.273,0.979,0.491,1.495,0.648
				c0.134,0.029,0.284,0.158,0.418,0.072C29.6,24.486,29.481,24.442,29.421,24.392z"/>
			<path fill="#FAFAEB" stroke="#FAFAEB" d="M28.174,7.244c-0.082,0-0.203-0.059-0.247,0.021c-0.045,0.137-0.037,0.316,0.082,0.424
				c0.09,0.062,0.194,0.078,0.306,0.078c0.381-0.029,0.719-0.165,1.1-0.208c0.008-0.021,0.021-0.051,0-0.062
				C29.017,7.379,28.592,7.315,28.174,7.244z"/>
			<path fill="#FAFAEB" stroke="#FAFAEB" d="M26.083,7.988c-0.009,0.197-0.022,0.221-0.05,0.361c-0.035,0.18-0.091,0.353-0.125,0.45
				c0.604-0.083,1.294-0.245,1.294-0.559C27.202,8.014,26.833,7.986,26.083,7.988z"/>
			<g>
				<path fill="#FAFAEB" stroke="#FAFAEB" d="M35.265,34.693H35.1h-1.403h-0.084l-0.029-0.078c-0.521-1.279-0.902-2.704-1.139-4.238
					c-0.06,0.078-0.124,0.156-0.223,0.222c-0.198,0.194-0.47,0.363-0.721,0.449L31.38,31.09l-0.039-0.123
					c-0.031-0.101,0.01-0.186,0.037-0.239c0.173-0.481,0.233-0.98,0.2-1.514c-0.033-0.519-0.161-1.059-0.367-1.56
					c-1.596-0.147-3.219-0.558-4.75-1.167c-0.933-0.354-2.661-1.16-3.792-2.564c-0.235-0.293-0.437-0.602-0.591-0.917
					c-0.307-0.539-0.511-1.153-0.605-1.823c-0.13-0.914-0.051-1.859,0.229-2.735c0.107-0.348,0.251-0.684,0.426-1.001
					c0.146-0.358,0.367-0.725,0.622-1.053c0.863-1.252,2.088-2.183,3.271-3.079l0.381-0.29l3.709-0.026h0.284l-0.189,0.21
					l-0.218,0.241l-0.068,0.079c-1.362,1.557-1.862,3.005-1.531,4.424c0.042,0.198,0.148,0.354,0.287,0.42l0.113-0.002
					c0.099-0.042,0.188-0.163,0.257-0.26c0.015-0.049,0.049-0.122,0.086-0.191c0.058-0.113,0.111-0.223,0.132-0.342
					c0.084-0.305,0.161-0.602,0.237-0.896c0.148-0.589,0.305-1.193,0.507-1.776c0.303-0.776,0.626-1.363,1.013-1.857L31.059,13
					h0.062h1.456h0.28l-0.188,0.21c-0.416,0.457-0.746,0.913-1.007,1.39c-0.412,0.703-0.661,1.493-0.904,2.257
					c-0.088,0.278-0.177,0.56-0.274,0.836c-0.113,0.327-0.272,0.62-0.472,0.873c-0.261,0.326-0.572,0.562-0.92,0.703H29.09
					l0.111-0.017c0.041-0.006,0.08-0.012,0.113-0.012c0.47-0.132,0.894-0.414,1.244-0.834c0.348-0.408,0.628-0.951,0.84-1.612
					c0.175-0.448,0.389-0.999,0.653-1.471c0.369-0.649,0.97-1.098,1.553-1.53l0.117-0.089l0.624-0.412l0.416-0.272
					c2.383-1.568,4.484-3.03,6.052-5.061c1.336-1.631,2.286-3.365,2.902-5.306c0.042-0.152,0.089-0.312,0.138-0.47
					c0.088-0.284,0.183-0.581,0.227-0.875c0.012-0.107,0.029-0.22,0.049-0.332c0.039-0.229,0.078-0.468,0.06-0.727
					c0.027-0.112,0.058-0.212,0.167-0.243c0.169,0.008,0.249,0.078,0.313,0.14c0.581,0.641,0.834,1.425,0.729,2.187
					c-0.233,1.213-0.851,2.292-1.442,3.337l-0.184,0.317c-0.109,0.144-0.198,0.28-0.29,0.416c-0.062,0.097-0.128,0.195-0.196,0.29
					c-1.277,1.796-2.83,3.409-4.486,4.661c-0.193,0.14-0.387,0.285-0.579,0.429l-0.542,0.399c-0.531,0.365-1.071,0.708-1.612,1.046
					l-0.132,0.083c-0.431,0.27-0.859,0.542-1.288,0.818c0.643-0.202,1.246-0.474,1.912-0.777c0.012,0,0.024-0.002,0.037-0.002
					c0.154,0,0.243,0.072,0.282,0.183c0.097,0.488-0.202,0.915-0.468,1.188c-0.653,0.572-1.427,0.885-2.2,1.146
					c0.76-0.146,1.526-0.373,2.286-0.678c0.021-0.002,0.039-0.002,0.056-0.002c0.125,0,0.173,0.041,0.208,0.068
					c0.125,0.289,0.002,0.486-0.099,0.646c-0.029,0.045-0.06,0.093-0.081,0.138c-0.478,0.552-1.104,0.776-1.66,0.976
					c-0.271,0.103-0.554,0.171-0.844,0.237l0.079-0.002c0.521-0.021,1.021-0.117,1.552-0.216c0.232-0.043,0.469-0.088,0.704-0.125
					l0.095-0.015l0.039,0.084c0.089,0.188-0.004,0.348-0.07,0.464l-0.014,0.021L36.4,17.548c-0.045,0.033-0.076,0.083-0.115,0.144
					c-0.043,0.066-0.097,0.144-0.179,0.208c-0.428,0.333-0.939,0.568-1.521,0.705c-0.303,0.068-0.632,0.116-1.005,0.14
					c0.093-0.006,0.188-0.008,0.289-0.008c0.296,0,0.618,0.021,0.97,0.021c0.278,0,0.556-0.013,0.824-0.031
					c0.113,0.023,0.196,0.083,0.173,0.243l-0.004,0.025l-0.021,0.072c-0.408,0.646-1.205,1.054-2.206,1.132
					c0.272,0.141,0.604,0.266,0.952,0.396l0.202,0.074c0.49,0.156,1.003,0.282,1.521,0.373c0.574,0.103,1.159,0.15,1.735,0.15
					c0.13,0,0.26-0.002,0.394-0.009l0.169-0.008l0.029,0.23l-0.01,0.033l-0.047,0.107c-0.705,0.671-1.535,1.085-2.399,1.196
					l-0.169,0.005c-1.345,0-2.604-0.488-3.85-1.489c-0.171-0.137-0.336-0.276-0.499-0.427l-0.338-0.351
					c0.008,0.021,0.021,0.048,0.041,0.089c0.122,0.215,0.223,0.369,0.332,0.518c0.591,0.811,1.355,1.429,2.168,2.082
					c0.234,0.189,0.472,0.379,0.705,0.576c0.593,0.499,1.02,0.919,1.382,1.364c0.933,1.258,1.308,2.719,1.057,4.115l-0.019,0.101
					l-0.105,0.002l-0.377,0.002h-0.119l-0.006-0.121c-0.019-0.47-0.109-0.962-0.278-1.463c-0.161-0.362-0.369-0.797-0.665-1.168
					c-0.525-0.682-1.211-1.287-1.875-1.872c-0.29-0.255-0.581-0.509-0.859-0.771c-0.488-0.459-1.1-1.085-1.528-1.85
					c-0.167-0.279-0.315-0.576-0.449-0.873c-0.081-0.173-0.155-0.352-0.225-0.527c0,0.017,0.002,0.031,0.004,0.052
					c0.004,0.054,0.013,0.104,0.008,0.152c0.012,0.066,0.027,0.156,0.047,0.245c0.188,0.863,0.667,1.697,1.508,2.624
					c0.358,0.399,0.752,0.778,1.141,1.146c0.42,0.368,0.822,0.71,1.281,1.068l0.062,0.048l-0.017,0.076
					c-0.212,1.046-0.058,2.13,0.433,3.048c0.188,0.351,0.422,0.674,0.7,0.96c0.097,0.091,0.216,0.178,0.334,0.264
					c0.111,0.083,0.22,0.165,0.317,0.252l0.093,0.08l-0.08,0.095c-0.109,0.126-0.278,0.189-0.503,0.189
					c-0.078,0-0.156-0.009-0.23-0.021c-0.387-0.056-0.746-0.186-1.071-0.385c0.109,1.315,0.348,2.609,0.721,3.952L35.265,34.693
					L35.265,34.693z M26.911,15.149c-0.249,0.202-0.463,0.437-0.671,0.667l-0.115,0.13c-0.323,0.41-0.62,0.9-0.855,1.415
					c-0.159,0.36-0.268,0.744-0.323,1.139c-0.12,0.859,0.008,1.786,0.36,2.614c0.161,0.373,0.365,0.721,0.605,1.036
					c0.47,0.624,1.083,1.157,1.821,1.588c0.44,0.251,0.91,0.459,1.396,0.613c-0.195-0.129-0.389-0.268-0.579-0.407
					c-0.531-0.399-0.956-0.81-1.298-1.246c-0.06-0.037-0.113-0.115-0.165-0.191c-0.027-0.039-0.054-0.074-0.084-0.109
					c-0.274-0.399-0.49-0.783-0.665-1.185c-0.311-0.694-0.488-1.436-0.532-2.202c-0.012-0.175-0.017-0.354-0.008-0.532
					c0.031-0.785,0.245-1.615,0.641-2.471C26.579,15.703,26.733,15.425,26.911,15.149L26.911,15.149z"/>
				<path fill="#FAFAEB" stroke="#FAFAEB" d="M44.389,0.126c0.097,0.007,0.158,0.079,0.227,0.138
					c0.509,0.564,0.763,1.318,0.662,2.052c-0.254,1.306-0.963,2.461-1.61,3.607c-0.173,0.225-0.313,0.469-0.479,0.696
					c-1.241,1.744-2.764,3.354-4.461,4.636c-0.372,0.27-0.753,0.562-1.119,0.826c-0.526,0.362-1.064,0.704-1.604,1.042h-0.001
					c-0.571,0.358-1.144,0.714-1.703,1.089c-0.03,0.021-0.03,0.071-0.008,0.102c0.023,0.02,0.05,0.025,0.074,0.025
					c0.062,0,0.121-0.049,0.188-0.049c0.717-0.215,1.389-0.517,2.062-0.826c0.005,0,0.01,0,0.014,0c0.067,0,0.116,0.056,0.137,0.108
					c0.075,0.395-0.164,0.775-0.44,1.062c-0.782,0.685-1.746,0.982-2.712,1.301c0.017,0.05-0.097,0.034-0.035,0.094
					c0.031,0.038,0.07,0.049,0.112,0.049c0.032,0,0.067-0.007,0.104-0.014s0.069-0.016,0.104-0.016c0.005,0,0.012,0,0.017,0
					c0.918-0.148,1.799-0.407,2.636-0.746c0.011-0.002,0.021-0.004,0.03-0.004c0.043,0,0.072,0.025,0.104,0.055
					c0.089,0.236-0.11,0.431-0.21,0.632c-0.426,0.488-1.007,0.703-1.591,0.911c-0.411,0.156-0.852,0.229-1.285,0.345
					c-0.029,0.029-0.065,0.079-0.029,0.123c0.104,0.016,0.223,0.02,0.337,0.02c0.094,0,0.187-0.003,0.27-0.006
					c0.755-0.036,1.501-0.224,2.264-0.344c0.074,0.158-0.037,0.287-0.104,0.416c-0.126,0.094-0.164,0.251-0.297,0.352
					c-0.438,0.344-0.938,0.561-1.475,0.685c-0.315,0.074-0.646,0.116-0.983,0.136c-0.022,0.021-0.062,0.035-0.067,0.065
					c0,0.042,0.015,0.085,0.067,0.085c0.398,0.082,0.832,0.11,1.261,0.11c0.283,0,0.563-0.013,0.837-0.031
					c0.076,0.021,0.03,0.1,0.037,0.148c-0.484,0.769-1.436,1.057-2.3,1.083c-0.022,0.029-0.022,0.079-0.017,0.115
					c0.411,0.265,0.867,0.416,1.322,0.588c0.499,0.158,1.015,0.287,1.543,0.38c0.572,0.1,1.16,0.152,1.769,0.152
					c0.129,0,0.258-0.003,0.388-0.008c0.029,0.007,0.06,0.026,0.073,0.062l-0.021,0.085c-0.643,0.611-1.44,1.049-2.33,1.163
					c-0.051,0.001-0.101,0.002-0.15,0.002c-1.46,0-2.703-0.6-3.772-1.459c-0.167-0.136-0.332-0.277-0.491-0.423l-0.388-0.401
					c-0.016-0.011-0.035-0.015-0.054-0.015c-0.02,0-0.036,0.003-0.052,0.007c-0.128,0.108-0.015,0.251,0.029,0.359
					c0.097,0.164,0.201,0.318,0.312,0.473c0.777,1.062,1.872,1.816,2.896,2.68v0.001c0.485,0.408,0.955,0.844,1.367,1.347
					c0.855,1.153,1.287,2.585,1.029,4.016l-0.377,0.001c-0.021-0.515-0.132-1.024-0.287-1.497c-0.188-0.425-0.396-0.84-0.688-1.206
					c-0.755-0.981-1.812-1.777-2.744-2.656h-0.001c-0.585-0.555-1.121-1.138-1.505-1.818c-0.165-0.28-0.312-0.569-0.447-0.862
					c-0.111-0.247-0.214-0.5-0.307-0.753c-0.008-0.011-0.024-0.015-0.04-0.015s-0.032,0.004-0.042,0.007
					c-0.127,0.13-0.052,0.33-0.06,0.479c0.013,0.096,0.028,0.188,0.05,0.279c0.219,1.018,0.816,1.891,1.535,2.683v0.001
					c0.362,0.399,0.757,0.78,1.146,1.148c0.426,0.373,0.83,0.717,1.292,1.077c-0.216,1.066-0.062,2.187,0.442,3.133
					c0.188,0.357,0.433,0.69,0.724,0.986c0.195,0.185,0.455,0.343,0.657,0.521c-0.099,0.113-0.251,0.146-0.408,0.146
					c-0.072,0-0.145-0.007-0.212-0.018c-0.438-0.063-0.836-0.224-1.195-0.479c-0.005-0.002-0.009-0.003-0.013-0.003
					c-0.024,0-0.024,0.036-0.024,0.06c0.109,1.421,0.365,2.797,0.742,4.147h-1.401c-0.57-1.403-0.938-2.883-1.155-4.397
					c-0.012-0.018-0.024-0.029-0.045-0.029c-0.004,0-0.009,0.001-0.016,0.002c-0.118,0.113-0.186,0.259-0.328,0.352
					c-0.188,0.181-0.44,0.354-0.693,0.438c-0.023-0.071,0.029-0.138,0.051-0.195c0.17-0.491,0.225-1.014,0.191-1.529
					c-0.036-0.554-0.174-1.101-0.377-1.598l-0.03-0.029c-1.659-0.195-3.257-0.597-4.788-1.206c-1.35-0.516-2.802-1.359-3.74-2.526
					c-0.225-0.279-0.419-0.577-0.577-0.896c-0.308-0.543-0.503-1.155-0.594-1.787c-0.128-0.896-0.047-1.832,0.223-2.681
					c0.107-0.343,0.248-0.671,0.417-0.979c0.156-0.374,0.374-0.73,0.611-1.032c0.949-1.375,2.312-2.344,3.629-3.352h3.633
					c-0.098,0.107-0.191,0.214-0.285,0.322c-1.105,1.262-1.965,2.805-1.562,4.535c0.042,0.192,0.156,0.408,0.354,0.504
					c0.014,0.008,0.026,0.014,0.042,0.02c0.02,0.004,0.039,0.006,0.059,0.006c0.042,0,0.081-0.009,0.118-0.023
					c0.131-0.054,0.229-0.192,0.309-0.304c0.075-0.193,0.201-0.365,0.239-0.581c0.247-0.884,0.439-1.787,0.739-2.655
					c0.246-0.631,0.555-1.265,0.994-1.82l1.456-0.001c-0.39,0.432-0.738,0.896-1.022,1.413c-0.567,0.969-0.821,2.066-1.188,3.113
					c-0.104,0.296-0.256,0.585-0.453,0.836c-0.227,0.283-0.514,0.521-0.869,0.665c-0.053,0.043-0.089,0.1-0.067,0.172
					c0.032,0.052,0.081,0.066,0.135,0.066c0.035,0,0.072-0.008,0.108-0.014s0.072-0.012,0.104-0.012c0.004,0,0.009,0,0.013,0
					c0.553-0.154,0.986-0.475,1.327-0.88c0.404-0.48,0.679-1.08,0.859-1.652c0.188-0.479,0.391-0.997,0.645-1.449
					c0.38-0.668,1.021-1.118,1.636-1.577c0.344-0.229,0.688-0.455,1.033-0.684h0.001c2.234-1.471,4.454-2.979,6.083-5.087
					c1.346-1.643,2.309-3.415,2.921-5.345c0.12-0.453,0.299-0.898,0.367-1.364c0.037-0.345,0.141-0.683,0.109-1.084
					C44.33,0.198,44.337,0.139,44.389,0.126 M29.485,24.594c0.034,0,0.067-0.009,0.102-0.027c0.015-0.079-0.104-0.123-0.164-0.173
					c-0.27-0.17-0.536-0.354-0.795-0.547h-0.002c-0.472-0.355-0.911-0.76-1.272-1.227c-0.104-0.078-0.165-0.208-0.254-0.309
					c-0.254-0.368-0.47-0.75-0.646-1.148c-0.297-0.672-0.479-1.389-0.521-2.16c-0.012-0.173-0.016-0.347-0.009-0.521
					c0.033-0.829,0.277-1.662,0.629-2.421c0.178-0.389,0.38-0.737,0.627-1.09V14.9c-0.015-0.036-0.052-0.036-0.089-0.036
					c-0.426,0.271-0.74,0.646-1.062,0.998c-0.344,0.438-0.643,0.939-0.874,1.448c-0.167,0.375-0.275,0.77-0.333,1.173
					c-0.127,0.899,0.013,1.842,0.37,2.68c0.163,0.381,0.373,0.737,0.622,1.062c0.498,0.658,1.145,1.202,1.859,1.616
					c0.474,0.273,0.979,0.491,1.495,0.648C29.268,24.515,29.379,24.594,29.485,24.594 M44.367-0.126l-0.039,0.01
					c-0.182,0.048-0.229,0.208-0.245,0.264L44.07,0.19l-0.004,0.067c0.02,0.243-0.02,0.462-0.059,0.693
					c-0.021,0.116-0.04,0.231-0.052,0.346c-0.041,0.277-0.128,0.559-0.222,0.854c-0.049,0.158-0.098,0.313-0.14,0.474
					c-0.607,1.911-1.547,3.632-2.873,5.25c-1.56,2.02-3.652,3.477-6.026,5.037l-0.397,0.262l-0.636,0.423l-0.136,0.1
					c-0.59,0.438-1.198,0.895-1.581,1.562c-0.268,0.478-0.475,1.012-0.656,1.482c-0.21,0.658-0.484,1.185-0.819,1.581
					c-0.144,0.172-0.3,0.32-0.468,0.442c0.036-0.04,0.069-0.082,0.104-0.125c0.205-0.26,0.371-0.563,0.493-0.907
					c0.098-0.281,0.188-0.564,0.278-0.85c0.239-0.755,0.486-1.533,0.89-2.223c0.259-0.473,0.583-0.919,0.993-1.372l0.379-0.418
					h-0.562l-1.457,0.001h-0.121l-0.075,0.095c-0.399,0.507-0.729,1.104-1.03,1.886c-0.204,0.592-0.357,1.194-0.509,1.778
					c-0.077,0.303-0.154,0.603-0.237,0.898c-0.021,0.126-0.074,0.227-0.128,0.333c-0.032,0.062-0.062,0.127-0.091,0.193
					c-0.055,0.075-0.125,0.17-0.183,0.192c-0.137-0.052-0.207-0.204-0.233-0.327c-0.322-1.382,0.17-2.792,1.504-4.314
					c0.093-0.107,0.188-0.213,0.283-0.319l0.377-0.417h-0.563h-3.635h-0.084l-0.065,0.051l-0.374,0.285
					c-1.194,0.907-2.43,1.844-3.312,3.122c-0.253,0.319-0.477,0.697-0.637,1.079c-0.164,0.292-0.312,0.637-0.425,0.999
					c-0.284,0.896-0.364,1.862-0.231,2.792c0.102,0.688,0.312,1.319,0.625,1.875c0.155,0.312,0.359,0.629,0.602,0.928
					c1.146,1.426,2.9,2.244,3.846,2.604c1.498,0.597,3.086,1.002,4.72,1.205c0.177,0.462,0.286,0.944,0.315,1.409
					c0.031,0.516-0.027,0.996-0.18,1.433c-0.039,0.079-0.102,0.205-0.052,0.354l0.079,0.24l0.239-0.082
					c0.268-0.091,0.555-0.271,0.787-0.495c0.012-0.007,0.022-0.015,0.035-0.021c0.237,1.45,0.607,2.798,1.103,4.013l0.063,0.156
					h0.168h1.401h0.33l-0.09-0.315c-0.35-1.253-0.58-2.465-0.699-3.693c0.283,0.143,0.587,0.237,0.911,0.285
					c0.082,0.014,0.166,0.021,0.249,0.021c0.263,0,0.464-0.078,0.597-0.232l0.161-0.187l-0.184-0.164
					c-0.101-0.087-0.21-0.17-0.322-0.253c-0.115-0.086-0.229-0.171-0.329-0.266c-0.264-0.269-0.493-0.579-0.675-0.922
					c-0.476-0.894-0.625-1.945-0.418-2.966l0.031-0.149l-0.122-0.098c-0.49-0.382-0.905-0.737-1.281-1.066
					c-0.345-0.325-0.755-0.722-1.127-1.13c-0.505-0.561-0.877-1.081-1.131-1.597c0.014,0.023,0.025,0.047,0.041,0.07
					c0.436,0.776,1.057,1.409,1.549,1.873c0.28,0.265,0.571,0.521,0.863,0.776c0.657,0.579,1.34,1.182,1.854,1.853
					c0.291,0.364,0.495,0.788,0.657,1.154c0.154,0.468,0.247,0.946,0.266,1.405l0.012,0.24l0.238-0.001l0.377-0.001l0.208-0.001
					l0.037-0.205c0.257-1.433-0.125-2.927-1.075-4.209c-0.373-0.456-0.805-0.881-1.404-1.387c-0.236-0.199-0.479-0.396-0.716-0.587
					c-0.695-0.562-1.357-1.098-1.899-1.744c0.015,0.012,0.03,0.021,0.045,0.036c1.271,1.02,2.554,1.515,3.931,1.515l0.158-0.002
					c0.916-0.116,1.771-0.542,2.496-1.23l0.052-0.052l0.02-0.067l0.021-0.085l0.021-0.076l-0.028-0.074
					c-0.042-0.11-0.136-0.192-0.251-0.22l-0.032-0.007l-0.031,0.001c-0.128,0.005-0.253,0.008-0.378,0.008
					c-0.567,0-1.148-0.051-1.727-0.148c-0.501-0.088-1.009-0.213-1.51-0.372l-0.175-0.063c-0.19-0.071-0.376-0.142-0.557-0.217
					c0.641-0.116,1.403-0.411,1.858-1.134l0.031-0.049l0.006-0.087c0.045-0.302-0.176-0.377-0.223-0.389l-0.041-0.011l-0.042,0.003
					c-0.224,0.016-0.453,0.026-0.687,0.029c0.457-0.145,0.865-0.355,1.218-0.633c0.101-0.074,0.159-0.166,0.208-0.24
					c0.031-0.047,0.06-0.088,0.084-0.106l0.045-0.034l0.026-0.05l0.033-0.06c0.071-0.124,0.193-0.332,0.078-0.581l-0.08-0.17
					l-0.188,0.029c-0.241,0.038-0.479,0.083-0.72,0.128c-0.084,0.018-0.167,0.031-0.25,0.046c0.436-0.174,0.881-0.405,1.233-0.811
					l0.021-0.025l0.015-0.029c0.021-0.043,0.05-0.085,0.075-0.128c0.107-0.172,0.254-0.405,0.146-0.699l-0.021-0.06l-0.046-0.041
					c-0.039-0.035-0.13-0.117-0.271-0.117h-0.05l-0.073,0.022c-0.218,0.087-0.435,0.167-0.65,0.242
					c0.238-0.143,0.467-0.302,0.684-0.49c0.428-0.439,0.604-0.883,0.522-1.297c-0.076-0.207-0.221-0.312-0.383-0.312h-0.057
					l-0.062,0.023c-0.259,0.119-0.516,0.236-0.773,0.347c0.088-0.055,0.177-0.108,0.265-0.165l0.136-0.085
					c0.491-0.308,1.06-0.667,1.615-1.048c0.173-0.125,0.343-0.252,0.513-0.379c0.204-0.152,0.409-0.305,0.61-0.45
					c1.671-1.264,3.23-2.885,4.519-4.691c0.072-0.101,0.141-0.203,0.207-0.308c0.085-0.129,0.17-0.259,0.265-0.382l0.201-0.348
					c0.602-1.054,1.223-2.143,1.459-3.366c0.11-0.812-0.153-1.633-0.724-2.268l-0.008-0.01l-0.04-0.037
					c-0.07-0.062-0.176-0.158-0.344-0.172L44.367-0.126L44.367-0.126z M28.241,23.863c-0.15-0.073-0.301-0.151-0.443-0.235
					c-0.723-0.419-1.324-0.939-1.784-1.552c-0.239-0.312-0.438-0.652-0.591-1.011c-0.345-0.807-0.47-1.709-0.354-2.547
					c0.056-0.391,0.16-0.763,0.314-1.106c0.229-0.504,0.521-0.987,0.843-1.396l0.102-0.109c0.015-0.017,0.029-0.034,0.046-0.051
					c-0.018,0.033-0.031,0.065-0.047,0.101c-0.401,0.864-0.621,1.71-0.652,2.518c-0.007,0.184-0.003,0.364,0.009,0.549
					c0.043,0.771,0.227,1.526,0.542,2.243c0.177,0.402,0.402,0.804,0.668,1.188c0.045,0.055,0.069,0.09,0.093,0.124
					c0.052,0.071,0.106,0.151,0.188,0.22C27.462,23.167,27.813,23.517,28.241,23.863L28.241,23.863z"/>
			</g>
			<g>
				<path fill="#FAFAEB" stroke="#FAFAEB" d="M26.476,13.247h-0.37l0.294-0.224c0.563-0.434,1.21-0.938,1.775-1.492
					c0.631-0.646,0.838-1.185,0.651-1.699c-0.045-0.087-0.104-0.203-0.168-0.27c-0.221-0.282-0.567-0.419-1.038-0.419
					c-0.181,0-0.359,0.021-0.53,0.053c-0.541,0.125-0.965,0.2-1.36,0.241c-0.131,0.22-0.28,0.462-0.464,0.694
					c0.252,0.012,0.493,0.09,0.68,0.228l0.09,0.074c0.091,0.074,0.167,0.142,0.249,0.226c0.226-0.051,0.433-0.167,0.6-0.333
					l0.195-0.195l0.019,0.275c0.035,0.523-0.417,0.963-0.853,1.15c-0.125,0.055-0.263,0.084-0.406,0.084
					c-0.265,0-0.536-0.101-0.742-0.269c-0.187-0.168-0.333-0.366-0.45-0.616c-0.109,0.08-0.214,0.16-0.317,0.242
					c0.093,0.29-0.053,0.59-0.23,0.783l-0.156,0.134c-0.271,0.226-0.46,0.398-0.386,0.626c0.017,0.025,0.043,0.07,0.043,0.134v0.108
					l-0.109,0.016c-0.041,0.008-0.082,0.012-0.124,0.012c-0.302,0-0.581-0.156-0.751-0.417c-0.115-0.25-0.119-0.544-0.021-0.805
					c0.252-0.425,0.639-0.635,1.01-0.838c0.165-0.09,0.331-0.179,0.485-0.288c0.006-0.006,0.017-0.014,0.027-0.022
					c-0.01,0.004-0.021,0.006-0.027,0.008c-0.049,0.014-0.103,0.029-0.15,0.035c-0.117,0.041-0.242,0.107-0.37,0.177
					c-0.209,0.113-0.425,0.23-0.688,0.255l-0.18,0.003c-0.183,0-0.31-0.021-0.413-0.076c-0.012,0.002-0.021,0.006-0.033,0.006
					c-0.055,0-0.113-0.037-0.162-0.066l-0.012-0.007l-0.088-0.049c-0.156-0.107-0.284-0.308-0.22-0.506l0.035-0.104l0.109,0.021
					c0.035,0.01,0.071,0.021,0.112,0.033c0.05,0.021,0.104,0.035,0.145,0.035c0.226-0.056,0.396-0.144,0.577-0.232
					c0.286-0.146,0.582-0.297,0.929-0.297l0.13,0.006c0.312,0,0.585,0.161,0.76,0.3c0.133-0.15,0.265-0.334,0.388-0.561
					c-0.021-0.006-0.042-0.014-0.063-0.021c-0.146-0.047-0.362-0.119-0.399-0.366l-0.008-0.032l0.035-0.109l-0.078-0.163
					l0.187,0.047c0.083-0.006,0.17-0.006,0.254-0.006c0.129,0,0.251-0.002,0.37-0.024c0.076-0.232,0.119-0.428,0.131-0.603
					c-0.454,0.037-0.908,0.157-1.458,0.386l-0.136,0.058L23.758,8.44c-0.037-0.16,0.039-0.3,0.101-0.411
					c0.022-0.041,0.045-0.08,0.062-0.121c0.32-0.481,0.865-0.666,1.368-0.816c-0.053-0.185-0.155-0.369-0.319-0.574l-0.191-0.24
					l0.308,0.039c0.015,0,0.027,0,0.042,0c0.193,0,0.308-0.027,0.427-0.058l0.129-0.027l0.093-0.021l0.043,0.084
					c0.106,0.208,0.185,0.425,0.261,0.649l0.008,0.021c0.16-0.013,0.32-0.017,0.477-0.021c0.122-0.003,0.243-0.007,0.362-0.014
					c-0.039-0.15-0.022-0.284,0.049-0.4c0.325-0.44,0.838-0.489,1.198-0.489c0.236,0,0.477,0.025,0.699,0.049l0.166,0.019
					c0.477,0.084,0.931,0.222,1.368,0.353l0.417,0.125h0.002l0.094,0.031c0.762,0.243,1.549,0.493,2.389,0.575
					c0.366,0,0.694-0.115,0.896-0.316c0.017-0.06,0.054-0.187,0.188-0.187h0.037l0.068,0.025c0.191,0.129,0.142,0.354,0.113,0.473
					c-0.095,0.374-0.362,0.637-0.834,0.858c-0.391,0.152-0.842,0.234-1.28,0.234c-0.132,0-0.265-0.006-0.394-0.022
					c-0.08,0-0.173-0.019-0.263-0.035c-0.029-0.008-0.058-0.014-0.086-0.019c0.175,0.115,0.364,0.284,0.471,0.518
					c0.464,0.662,0.29,1.596-0.097,2.215c-0.409,0.637-0.941,1.208-1.457,1.763c-0.156,0.168-0.314,0.337-0.468,0.507l-0.037,0.041
					H30.11H26.476L26.476,13.247z M26.201,8.113c-0.011,0.085-0.021,0.13-0.033,0.198c-0.027,0.131-0.053,0.243-0.08,0.335
					c0.725-0.121,0.988-0.29,0.988-0.405C27.076,8.12,26.499,8.113,26.201,8.113L26.201,8.113z M28.045,7.302
					c-0.028,0.092-0.032,0.223,0.048,0.297c0.041,0.027,0.109,0.043,0.222,0.043c0.188-0.017,0.37-0.062,0.557-0.104
					c0.03-0.008,0.063-0.016,0.1-0.021c-0.213-0.047-0.426-0.082-0.64-0.118l-0.179-0.03L28.045,7.302L28.045,7.302z"/>
				<path fill="#FAFAEB" stroke="#FAFAEB" d="M28.175,6.166c0.291,0,0.589,0.04,0.85,0.066c0.605,0.105,1.175,0.301,1.765,0.473
					c0.812,0.259,1.621,0.524,2.51,0.61c0.365,0,0.748-0.103,0.993-0.354c0.046-0.038,0.027-0.15,0.099-0.15
					c0.01,0,0.022,0.002,0.036,0.008c0.142,0.094,0.074,0.271,0.052,0.395c-0.09,0.346-0.438,0.568-0.754,0.721
					c-0.368,0.144-0.803,0.223-1.229,0.223c-0.126,0-0.253-0.007-0.376-0.021c-0.18-0.006-0.352-0.073-0.533-0.073
					c-0.048,0-0.097,0.004-0.147,0.017c-0.021,0.029-0.021,0.064,0,0.094c0.271,0.122,0.545,0.323,0.673,0.604
					c0.428,0.608,0.291,1.482-0.09,2.095c-0.521,0.815-1.244,1.516-1.911,2.252l-3.632,0.001c0.622-0.476,1.233-0.959,1.786-1.499
					c0.485-0.497,0.936-1.134,0.679-1.832c-0.062-0.124-0.12-0.239-0.196-0.318c-0.267-0.342-0.694-0.457-1.129-0.457
					c-0.188,0-0.375,0.021-0.554,0.055c-0.47,0.109-0.938,0.202-1.409,0.245c-0.202,0.338-0.404,0.661-0.673,0.962
					c0.078-0.015,0.157-0.021,0.235-0.021c0.236,0,0.468,0.066,0.653,0.201c0.142,0.122,0.246,0.201,0.364,0.337
					c0.284-0.049,0.538-0.187,0.732-0.38c0.031,0.453-0.374,0.854-0.776,1.026c-0.111,0.051-0.233,0.074-0.355,0.074
					c-0.24,0-0.48-0.092-0.659-0.238c-0.232-0.208-0.374-0.452-0.479-0.71c-0.188,0.129-0.353,0.258-0.522,0.394
					c0.133,0.261,0.006,0.546-0.172,0.738c-0.254,0.23-0.696,0.489-0.568,0.883c0.018,0.03,0.037,0.06,0.037,0.097
					c-0.036,0.005-0.071,0.007-0.104,0.007c-0.267,0-0.503-0.14-0.649-0.359c-0.097-0.216-0.09-0.475-0.008-0.688
					c0.327-0.555,0.947-0.72,1.447-1.07c0.083-0.079,0.21-0.136,0.237-0.237c-0.048-0.027-0.097-0.039-0.146-0.039
					c-0.111,0-0.225,0.055-0.332,0.068c-0.366,0.122-0.657,0.394-1.053,0.43c-0.057,0.002-0.111,0.004-0.168,0.004
					c-0.131,0-0.258-0.012-0.355-0.061c-0.01,0.002-0.021,0.003-0.03,0.003c-0.09,0-0.166-0.079-0.254-0.112
					c-0.119-0.084-0.216-0.229-0.171-0.365c0.083,0.02,0.186,0.07,0.281,0.07c0.024,0,0.052-0.003,0.077-0.013
					c0.486-0.129,0.9-0.515,1.431-0.515c0.03,0,0.062,0.002,0.093,0.005c0.014,0,0.024-0.001,0.036-0.001
					c0.287,0,0.562,0.158,0.771,0.346c0.226-0.225,0.405-0.512,0.548-0.784c-0.143-0.115-0.472-0.093-0.509-0.352
					c-0.015-0.043,0.037-0.08,0.022-0.115c0.233-0.021,0.472,0.015,0.71-0.05c0.089-0.26,0.164-0.544,0.164-0.818l-0.03-0.021
					c-0.583,0.029-1.104,0.194-1.604,0.402c-0.037-0.166,0.097-0.309,0.157-0.46c0.305-0.453,0.881-0.625,1.396-0.775
					c-0.045-0.273-0.187-0.519-0.366-0.74c0.038,0.005,0.074,0.007,0.11,0.007c0.187,0,0.356-0.056,0.532-0.093
					C25.829,6.59,25.91,6.841,26,7.1c0.374-0.036,0.748-0.021,1.104-0.06c-0.073-0.141-0.111-0.3-0.022-0.442
					C27.336,6.252,27.748,6.165,28.175,6.166 M28.315,7.767c0.381-0.029,0.719-0.165,1.1-0.208c0.008-0.021,0.021-0.051,0-0.062
					c-0.397-0.118-0.822-0.182-1.24-0.253c-0.049,0-0.112-0.021-0.164-0.021c-0.035,0-0.065,0.009-0.083,0.041
					c-0.045,0.138-0.037,0.317,0.082,0.425C28.099,7.753,28.203,7.767,28.315,7.767 M25.908,8.8
					c0.604-0.083,1.294-0.245,1.294-0.559c0-0.222-0.354-0.253-1.067-0.253c-0.017,0-0.035,0-0.052,0
					c-0.009,0.197-0.022,0.221-0.05,0.361C25.998,8.529,25.943,8.702,25.908,8.8 M28.175,5.916c-0.607,0-1.031,0.175-1.295,0.535
					c-0.059,0.091-0.105,0.212-0.098,0.363c-0.077,0.003-0.155,0.005-0.234,0.007c-0.125,0.004-0.25,0.007-0.375,0.015
					c-0.069-0.198-0.144-0.401-0.242-0.596l-0.087-0.17l-0.188,0.04l-0.136,0.03c-0.12,0.027-0.231,0.056-0.344,0.056
					c-0.026,0-0.052-0.001-0.08-0.005l-0.614-0.076l0.391,0.481c0.114,0.144,0.198,0.279,0.254,0.411
					c-0.474,0.148-0.992,0.354-1.299,0.806l-0.016,0.022l-0.01,0.025c-0.014,0.036-0.034,0.071-0.054,0.105
					c-0.068,0.124-0.161,0.293-0.115,0.501l0.064,0.291l0.273-0.112c0.479-0.198,0.879-0.313,1.271-0.362
					c-0.018,0.106-0.046,0.222-0.083,0.349c-0.086,0.011-0.178,0.011-0.271,0.012c-0.09,0-0.179,0.001-0.268,0.008l-0.145,0.012
					l-0.067,0.174c-0.021,0.041-0.069,0.139-0.028,0.26c0.031,0.232,0.236,0.336,0.391,0.393c-0.071,0.119-0.146,0.226-0.221,0.319
					c-0.241-0.166-0.498-0.255-0.74-0.255c-0.054-0.003-0.092-0.004-0.129-0.004c-0.378,0-0.7,0.162-0.984,0.307
					c-0.176,0.089-0.342,0.172-0.511,0.217c-0.004,0-0.008,0.001-0.012,0.001c-0.032,0-0.074-0.014-0.105-0.025
					c-0.044-0.015-0.086-0.026-0.125-0.035l-0.218-0.048l-0.071,0.213c-0.074,0.227,0.028,0.479,0.266,0.646l0.025,0.021l0.03,0.012
					c0.021,0.007,0.037,0.02,0.054,0.03c0.062,0.035,0.154,0.093,0.273,0.097c0.137,0.051,0.283,0.058,0.399,0.058
					c0.06,0,0.118-0.002,0.178-0.004c0.012-0.001,0.022-0.002,0.037-0.004c-0.159,0.126-0.304,0.278-0.419,0.473
					c-0.129,0.328-0.124,0.657-0.005,0.923c0.214,0.328,0.533,0.506,0.877,0.506c0.046,0,0.092-0.003,0.139-0.012l0.216-0.027v-0.22
					c0-0.096-0.039-0.162-0.06-0.199c-0.035-0.112,0.08-0.236,0.354-0.462c0.056-0.047,0.106-0.09,0.153-0.132
					c0.245-0.262,0.346-0.562,0.296-0.835c0.044-0.032,0.088-0.067,0.133-0.103c0.112,0.202,0.245,0.371,0.408,0.517
					c0.234,0.194,0.532,0.304,0.826,0.304c0.163,0,0.315-0.032,0.459-0.097c0.47-0.198,0.963-0.685,0.925-1.271l-0.034-0.55
					l-0.39,0.388c-0.134,0.133-0.296,0.229-0.475,0.282c-0.065-0.065-0.134-0.122-0.21-0.188l-0.075-0.063
					c-0.164-0.12-0.347-0.198-0.539-0.235c0.111-0.16,0.214-0.321,0.31-0.479c0.381-0.041,0.794-0.116,1.317-0.237
					c0.167-0.033,0.336-0.05,0.496-0.05c0.432,0,0.746,0.122,0.932,0.359c0.067,0.073,0.118,0.174,0.167,0.272
					c0.159,0.438-0.039,0.938-0.633,1.547c-0.564,0.55-1.204,1.05-1.759,1.475l-0.586,0.449h0.736l3.632-0.001h0.111l0.075-0.083
					c0.149-0.167,0.304-0.332,0.458-0.496c0.521-0.561,1.062-1.14,1.478-1.789c0.41-0.655,0.596-1.643,0.085-2.373
					c-0.039-0.088-0.091-0.167-0.15-0.237c0.101,0.01,0.215,0.016,0.33,0.016c0.455,0,0.924-0.085,1.318-0.24
					c0.523-0.25,0.813-0.539,0.905-0.889l0.014-0.065c0.028-0.127,0.097-0.426-0.17-0.601L34.5,6.57l-0.111-0.008
					c-0.084,0-0.234,0.032-0.3,0.249c-0.193,0.168-0.472,0.254-0.792,0.254c-0.801-0.079-1.545-0.316-2.333-0.566l-0.103-0.032
					l-0.397-0.117c-0.448-0.138-0.912-0.276-1.396-0.362l-0.177-0.021C28.671,5.942,28.422,5.916,28.175,5.916L28.175,5.916
					L28.175,5.916z M28.289,7.517c-0.059-0.002-0.096-0.011-0.121-0.023c0.002,0,0.004,0,0.006,0L28.289,7.517L28.289,7.517z
					 M26.259,8.488c0.007-0.03,0.013-0.061,0.019-0.091l0.016-0.065c0.006-0.034,0.012-0.062,0.018-0.093
					c0.195,0.002,0.453,0.01,0.592,0.04C26.829,8.325,26.654,8.409,26.259,8.488L26.259,8.488z"/>
			</g>
			<g>
				<path fill="#FAFAEB" stroke="#FAFAEB" d="M31.117,13.247h-0.257l0.156-0.201c0.109-0.142,0.23-0.273,0.362-0.407
					c0.104-0.158,0.265-0.308,0.423-0.45c0.072-0.065,0.144-0.131,0.212-0.201c0.542-0.489,1.104-0.949,1.664-1.407
					c1.088-0.892,2.216-1.812,3.123-2.896c1.253-1.428,2.011-2.687,2.383-3.967c0.183-0.571,0.076-1.264-0.259-1.722L38.88,1.93
					l0.037-0.144c0.027-0.055,0.08-0.094,0.146-0.111c0.012,0,0.021,0,0.029,0c0.316,0,0.507,0.135,0.678,0.249l0.144,0.097
					c0.628,0.39,0.896,1.212,0.715,2.194c-0.088,0.717-0.409,1.352-0.709,1.875c-0.771,1.259-1.869,2.488-3.359,3.766
					c-0.115,0.088-0.224,0.181-0.333,0.271c-0.158,0.137-0.319,0.271-0.483,0.382c-0.269,0.228-0.553,0.454-0.832,0.686
					c-0.776,0.626-1.58,1.272-2.246,2.009l-0.037,0.041h-0.058L31.117,13.247L31.117,13.247z"/>
				<path fill="#FAFAEB" stroke="#FAFAEB" d="M39.158,1.794c0.261,0,0.476,0.201,0.688,0.333c0.675,0.419,0.799,1.298,0.656,2.067
					c-0.081,0.66-0.364,1.262-0.693,1.837c-0.856,1.399-2.062,2.642-3.332,3.729c-0.269,0.202-0.529,0.46-0.807,0.647
					c-1.052,0.885-2.188,1.705-3.102,2.711l-1.456,0.001c0.107-0.136,0.226-0.267,0.353-0.395c0.165-0.244,0.425-0.438,0.635-0.652
					c1.605-1.443,3.42-2.671,4.794-4.314c1.062-1.205,1.974-2.518,2.406-4.011c0.188-0.588,0.089-1.328-0.276-1.829
					c-0.021-0.058,0.009-0.106,0.067-0.122C39.116,1.795,39.137,1.794,39.158,1.794 M39.158,1.544c-0.032,0-0.063,0.002-0.098,0.006
					c-0.125,0.027-0.209,0.093-0.255,0.18c-0.045,0.086-0.05,0.188-0.013,0.284l0.012,0.028l0.021,0.026
					c0.309,0.422,0.405,1.082,0.238,1.604c-0.369,1.271-1.115,2.516-2.354,3.923c-0.906,1.083-2.03,2.004-3.117,2.894
					c-0.55,0.45-1.119,0.916-1.657,1.4c-0.077,0.077-0.146,0.143-0.219,0.208c-0.162,0.146-0.329,0.302-0.456,0.488
					c-0.103,0.1-0.226,0.236-0.34,0.379l-0.323,0.406h0.521l1.457-0.001h0.109l0.074-0.082c0.658-0.726,1.455-1.37,2.226-1.993
					c0.285-0.229,0.57-0.46,0.852-0.693c0.144-0.098,0.304-0.231,0.463-0.367c0.111-0.094,0.221-0.188,0.333-0.271
					c1.514-1.297,2.62-2.537,3.395-3.8c0.312-0.543,0.639-1.19,0.729-1.938c0.188-1.021-0.098-1.892-0.772-2.312
					c-0.046-0.028-0.091-0.06-0.137-0.091C39.662,1.699,39.438,1.544,39.158,1.544L39.158,1.544z"/>
			</g>
			<g>
				<path fill="#FAFAEB" stroke="#FAFAEB" d="M33.091,13.802h-0.037l-0.113-0.036c-0.083-0.056-0.13-0.191-0.115-0.275
					c0.022-0.173,0.197-0.345,0.405-0.536l0.09-0.086c0.438-0.442,1.224-1.093,1.915-1.668c0.354-0.29,0.678-0.559,0.912-0.766
					l0.372-0.323C36.943,9.748,37.481,9.286,37.769,9c0.306-0.302,0.869-0.949,1.126-1.249c0.148-0.172,0.354-0.479,0.522-0.729
					l0.174-0.257c0.236-0.338,0.641-1.115,0.787-1.518c0.129-0.351,0.314-0.867,0.37-1.148c0.021-0.119,0.017-0.267,0.008-0.405
					l-0.006-0.2c0-0.105,0-0.355,0.187-0.355c0.36,0.045,0.53,0.592,0.59,0.822c0.062,0.243,0.14,0.877,0.065,1.175
					c-0.117,0.489-0.509,1.364-0.783,1.82c-0.308,0.511-1.091,1.465-1.462,1.896c-0.378,0.44-1.225,1.257-1.679,1.615
					c-0.292,0.23-0.789,0.583-1.232,0.899c-0.261,0.183-0.501,0.355-0.676,0.483c-0.191,0.142-0.429,0.312-0.682,0.491
					c-0.472,0.339-0.988,0.707-1.34,0.988c-0.021,0.021-0.065,0.063-0.118,0.119c-0.204,0.208-0.302,0.3-0.372,0.327
					C33.204,13.793,33.145,13.802,33.091,13.802L33.091,13.802z"/>
				<path fill="#FAFAEB" stroke="#FAFAEB" d="M40.937,3.26c0.019,0,0.032,0.014,0.038,0.014c0.219,0.022,0.378,0.505,0.433,0.719
					c0.062,0.255,0.128,0.86,0.064,1.115c-0.118,0.487-0.512,1.354-0.77,1.785c-0.303,0.5-1.071,1.437-1.45,1.878
					c-0.376,0.438-1.21,1.239-1.662,1.6c-0.461,0.366-1.437,1.032-1.906,1.381c-0.553,0.408-1.482,1.051-2.022,1.484
					c-0.07,0.058-0.372,0.393-0.458,0.425c-0.025,0.009-0.07,0.017-0.111,0.017c-0.033,0-0.064-0.005-0.082-0.017
					c-0.034-0.021-0.068-0.111-0.062-0.152c0.027-0.178,0.337-0.425,0.463-0.553c0.652-0.662,2.118-1.812,2.819-2.427
					c0.408-0.357,1.242-1.058,1.626-1.44c0.303-0.298,0.856-0.936,1.134-1.257c0.206-0.24,0.527-0.742,0.704-0.995
					c0.243-0.35,0.654-1.146,0.803-1.546c0.106-0.297,0.315-0.86,0.376-1.171c0.037-0.192,0.003-0.431,0.003-0.625
					C40.875,3.297,40.908,3.26,40.937,3.26 M40.937,3.01c-0.208,0-0.312,0.163-0.312,0.484c0,0.065,0.003,0.136,0.007,0.208
					c0.007,0.132,0.014,0.271-0.006,0.37c-0.052,0.276-0.246,0.807-0.353,1.092c-0.153,0.424-0.559,1.204-0.785,1.53
					c-0.051,0.071-0.112,0.164-0.182,0.265c-0.165,0.244-0.369,0.548-0.508,0.709c-0.235,0.273-0.813,0.94-1.119,1.243
					c-0.281,0.279-0.809,0.734-1.231,1.099l-0.384,0.331c-0.234,0.206-0.56,0.477-0.911,0.767c-0.693,0.576-1.481,1.228-1.924,1.674
					c-0.022,0.024-0.056,0.053-0.09,0.085c-0.222,0.207-0.409,0.395-0.439,0.604c-0.021,0.125,0.044,0.313,0.17,0.397
					c0.059,0.04,0.131,0.059,0.221,0.059c0.07,0,0.144-0.012,0.198-0.03c0.095-0.035,0.188-0.12,0.419-0.355
					c0.049-0.05,0.09-0.093,0.11-0.109c0.35-0.279,0.877-0.658,1.346-0.992c0.247-0.179,0.479-0.346,0.67-0.484
					c0.18-0.133,0.432-0.312,0.701-0.502c0.432-0.307,0.922-0.654,1.212-0.884c0.466-0.37,1.306-1.179,1.694-1.633
					c0.403-0.471,1.167-1.399,1.477-1.912c0.274-0.46,0.676-1.354,0.798-1.855c0.077-0.319-0.004-0.983-0.067-1.233
					c-0.079-0.32-0.269-0.865-0.646-0.906L40.99,3.025L40.937,3.01L40.937,3.01z"/>
			</g>
		</g>
	</g>
	<g id="Layer_3">
		<g>
			<g>
				<path fill="#EAC379" d="M37.084,36.541c0,0-0.019,0.002-0.067,0c-0.38,0.018-0.769,0.007-1.075-0.191
					c-0.401-0.304-0.462-0.806-0.672-1.205c-0.06-0.192-0.115-0.385-0.169-0.575l-1.401,0.001c0.132,0.323,0.273,0.646,0.429,0.961
					c0.082,0.251,0.336,0.446,0.269,0.719c-0.052,0.063-0.134,0.15-0.23,0.145c-0.111-0.009-0.238-0.016-0.336-0.043
					c-0.308-0.078-0.605-0.217-0.903-0.293c-0.449-0.072-1.091-0.316-1.463,0.076c-0.062,0.107-0.062,0.244-0.009,0.358
					c-0.136,0.03-0.284-0.007-0.435,0.008c-0.319-0.008-0.597,0.181-0.737,0.443c-0.047,0.131-0.047,0.323,0.035,0.438
					c0.054,0.087,0.149,0.139,0.247,0.146c0.03-0.021,0.037-0.059,0.044-0.102c0.194-0.357,0.637-0.416,1.031-0.423
					c0.029,0.007,0.067,0.035,0.053,0.071c-0.11,0.093-0.254,0.143-0.344,0.258c-0.113,0.15-0.172,0.33-0.075,0.519
					c0.082,0.146,0.239,0.266,0.435,0.266c0.069,0.001,0.065,0.029,0.097,0c-0.021-0.137,0.068-0.28,0.179-0.387
					c0.479-0.36,1.084-0.434,1.695-0.489c1.135-0.094,2.446-0.115,3.548,0.104c0.25,0.053,0.242,0.065,0.367,0.124
					c0.163,0.071,0.328,0.201,0.388,0.372c0.092,0.018,0.172-0.033,0.239-0.076c0.247-0.188,0.479-0.438,0.411-0.746
					c-0.022-0.087-0.064-0.142-0.157-0.229C38.093,36.499,37.548,36.505,37.084,36.541z"/>
			</g>
			<g>
				<path fill="#EAC379" d="M36.561,29.998c0.128-0.08,0.145-0.216,0.195-0.338c0.042-0.151,0.078-0.303,0.104-0.454h-0.377
					c0.012,0.246,0,0.49-0.031,0.733C36.479,29.974,36.509,30.01,36.561,29.998z"/>
			</g>
			<g>
				<path fill="#EAC379" d="M30.765,30.874c-0.347-0.504-0.583-1.069-0.729-1.668l-3.398,0.001c-0.12,0.387-0.266,0.768-0.437,1.136
					c0.658,0,1.202-0.432,1.666-0.798c-0.182,0.711-0.436,1.266-0.777,2.046c-0.525,1.196-1.056,2.076-1.626,2.979
					c-0.195,0.307-0.396,0.616-0.601,0.938c-0.135,0.225-0.299,0.489-0.574,0.611c-0.771,0.2-1.314-0.395-2.062-0.331
					c-0.354,0.061-0.47,0.122-0.59,0.243c-0.067,0.102-0.059,0.223-0.015,0.33c-0.418-0.034-0.873-0.034-1.203,0.2
					c-0.144,0.13-0.208,0.322-0.148,0.518c0.044,0.123,0.127,0.229,0.276,0.28c0.179-0.329,0.544-0.48,0.912-0.566
					c0.157-0.021,0.322-0.051,0.47,0.008c0.037,0.021,0.006,0.062-0.021,0.085c-0.15,0.072-0.314,0.157-0.436,0.287
					c-0.119,0.151-0.225,0.337-0.165,0.531c0.108,0.249,0.373,0.343,0.626,0.315c0.023-0.028-0.006-0.059-0.006-0.086
					c-0.031-0.272,0.254-0.416,0.47-0.531c0.72-0.236,1.532-0.236,2.316-0.259c0.649-0.035,1.308,0.008,1.958,0.051
					c0.38,0.043,0.762,0.105,1.053,0.338c0.068,0.064,0.082,0.179,0.038,0.259c0.097,0.027,0.188-0.027,0.271-0.073
					c0.015-0.014,0.022-0.019,0.061-0.049c0.223-0.175,0.297-0.409,0.297-0.66c-0.007-0.243-0.246-0.407-0.448-0.48
					c-0.044-0.02-0.057-0.021-0.104-0.035c-0.492-0.144-1.038-0.085-1.568-0.08c-0.148-0.021-0.345,0.009-0.412-0.147
					c-0.026-0.095,0.018-0.201,0.062-0.279c0.342-0.479,0.698-0.945,1.055-1.415c0.584-0.77,1.173-1.53,1.715-2.312
					c0.428-0.607,0.704-1.361,0.727-2.079c0.3,0.285,0.657,0.521,1.046,0.675C30.556,30.874,30.676,30.901,30.765,30.874z"/>
			</g>
			<g>
				<path fill="#EAC379" d="M29.862,27.844c-0.201-0.057-0.425-0.063-0.628-0.113c-0.77-0.172-1.509-0.468-2.201-0.789
					c-0.03,0.754-0.163,1.521-0.395,2.265l3.398-0.001C29.93,28.763,29.874,28.304,29.862,27.844z"/>
			</g>
			<g>
				<path fill="#EAC379" d="M37.403,23.844h-0.002c-1.09-0.517-2.293-0.833-3.407-1.272c-0.218-0.071-0.404-0.215-0.628-0.25
					c-0.028,0.021-0.037,0.057-0.021,0.093c0.605,0.53,1.235,0.972,1.86,1.434c0.942,0.694,1.872,1.438,2.674,2.602
					c0.521,0.757,0.829,1.195,1.143,2.052c0.087,0.241,0.165,0.479,0.231,0.708c0.369,1.305,0.368,2.449-0.008,3.661
					c0,0.109-0.099,0.181-0.035,0.288c0.156,0.035,0.215-0.144,0.298-0.23c0.41-0.649,0.806-1.334,1.037-2.071
					c0.183-0.529,0.286-1.086,0.311-1.646c0.061-1.413-0.396-2.844-1.408-3.888C38.86,24.658,38.159,24.203,37.403,23.844z"/>
			</g>
			<g>
				<path fill="#EAC379" d="M38.556,20.768c0.291-0.285,0.545-0.608,0.785-0.934c0.044-0.121,0.195-0.221,0.165-0.363
					c-0.008-0.027-0.044-0.027-0.068-0.035c-1.083,0.588-2.219,1.047-3.486,1.196c-0.009,0.021-0.022,0.052,0,0.072
					c0.237,0.043,0.479,0.093,0.731,0.106C37.316,20.848,37.943,20.87,38.556,20.768z"/>
			</g>
			<g>
				<path fill="#EAC379" d="M42.35,13.839c-0.349,0.225-0.565,0.511-0.926,0.727c-0.44,0.33-0.889,0.617-1.354,0.896
					c-1.016,0.561-2.062,1.056-3.167,1.406c0.038,0.531-0.155,1.047-0.598,1.4c0.006,0.042-0.067,0.027-0.067,0.063
					c0,0.016,0,0.035,0.016,0.049c0.934-0.164,1.808-0.528,2.668-0.955c1.157-0.667,2.292-1.447,3.083-2.537
					c0.21-0.296,0.396-0.587,0.464-0.947C42.465,13.859,42.418,13.832,42.35,13.839z"/>
			</g>
			<g>
				<path fill="#EAC379" d="M41.155,16.737c-0.225,0.093-0.401,0.279-0.604,0.401c-0.928,0.574-1.915,1.032-2.961,1.344h1.092H37.59
					c-0.454,0.135-0.918,0.241-1.396,0.317l-0.007,0.08c0.074,0.66-0.545,1.162-1.09,1.437v0.042l0.098,0.016
					c0.447-0.036,0.883-0.145,1.301-0.238c1.128-0.356,2.227-0.823,3.174-1.575c0.036-0.023,0.068-0.052,0.103-0.076h0.002
					c0.486-0.362,0.952-0.819,1.323-1.311c0.037-0.122,0.18-0.229,0.156-0.364C41.229,16.781,41.201,16.729,41.155,16.737z"/>
			</g>
			<g>
				<path fill="#EAC379" d="M43.546,10.603c-0.91,0.938-1.913,1.776-2.98,2.518h-0.001c-1.082,0.749-2.229,1.396-3.414,1.945
					c0.128,0.388,0.062,0.817-0.163,1.17c-0.054,0.086-0.147,0.151-0.173,0.245c0.023,0.042,0.067,0.006,0.105,0.006
					c1.91-0.798,3.81-1.847,5.306-3.364h-0.831h0.831c0.225-0.225,0.438-0.462,0.642-0.71c0.396-0.537,0.808-1.089,0.857-1.75
					C43.71,10.574,43.604,10.574,43.546,10.603z"/>
			</g>
			<g>
				<path fill="#EAC379" d="M45.979,3.613c-0.042-0.208-0.037-0.438-0.146-0.618c-0.021-0.043-0.098-0.043-0.126-0.006
					c-0.138,0.315-0.247,0.638-0.382,0.946c-0.628,1.24-1.315,2.481-2.24,3.572c-0.671,0.905-1.547,1.657-2.294,2.482
					c-0.007,0.029-0.022,0.08,0,0.108c0.038,0.043,0.104,0.027,0.142,0.027L41.3,9.847c1.575-1.292,3.083-2.649,4.256-4.319
					C45.929,4.983,46.063,4.295,45.979,3.613z"/>
			</g>
			<g>
				<path fill="#EAC379" d="M45.278,6.534c-2.143,2.709-5.048,4.896-8,6.587h-0.001c-0.043,0.024-0.084,0.048-0.126,0.072
					c0.018,0.08,0.062,0.158,0.101,0.237c0.133,0.372,0.059,0.811-0.182,1.117c-0.015,0.029-0.007,0.061,0.017,0.072
					c0.857-0.462,1.708-0.957,2.526-1.498h0.003c1.521-0.997,2.947-2.142,4.172-3.487c0.647-0.769,1.188-1.559,1.565-2.439
					c0.068-0.202,0.158-0.403,0.15-0.626C45.48,6.461,45.337,6.454,45.278,6.534z"/>
			</g>
			<path fill="none" d="M29.421,24.392c-0.27-0.17-0.536-0.354-0.795-0.548h-0.001c-0.472-0.354-0.911-0.759-1.272-1.226
				c-0.104-0.078-0.165-0.208-0.254-0.309c-0.254-0.368-0.47-0.75-0.646-1.148c-0.297-0.672-0.479-1.388-0.521-2.159
				c-0.012-0.173-0.016-0.347-0.009-0.521c0.033-0.829,0.277-1.662,0.629-2.421c0.178-0.389,0.38-0.737,0.627-1.09V14.9
				c-0.015-0.036-0.052-0.036-0.089-0.036c-0.426,0.271-0.74,0.646-1.062,0.998c-0.345,0.438-0.644,0.939-0.875,1.448
				c-0.167,0.375-0.275,0.77-0.333,1.173c-0.127,0.899,0.013,1.842,0.37,2.68c0.163,0.381,0.373,0.737,0.622,1.062
				c0.498,0.658,1.145,1.202,1.859,1.616c0.474,0.273,0.979,0.491,1.495,0.648c0.134,0.029,0.284,0.158,0.418,0.072
				C29.6,24.486,29.481,24.442,29.421,24.392z"/>
			<path fill="none" d="M28.174,7.245c-0.082,0-0.203-0.059-0.247,0.021c-0.045,0.136-0.037,0.315,0.082,0.424
				c0.09,0.062,0.194,0.078,0.306,0.078c0.381-0.029,0.718-0.165,1.099-0.208c0.008-0.021,0.021-0.051,0-0.062
				C29.017,7.38,28.592,7.316,28.174,7.245z"/>
			<path fill="none" d="M26.083,7.988c-0.009,0.197-0.022,0.221-0.05,0.362c-0.035,0.179-0.091,0.353-0.125,0.449
				c0.604-0.083,1.294-0.245,1.294-0.559C27.202,8.015,26.833,7.987,26.083,7.988z"/>
			<g>
				<path fill="#EAC379" d="M44.615,0.263c-0.066-0.06-0.13-0.131-0.227-0.138c-0.052,0.015-0.06,0.072-0.074,0.114
					c0.029,0.401-0.072,0.739-0.109,1.084c-0.068,0.466-0.247,0.911-0.367,1.364c-0.612,1.93-1.575,3.702-2.921,5.345
					c-1.629,2.107-3.849,3.617-6.083,5.087h-0.001c-0.346,0.229-0.689,0.454-1.033,0.683c-0.613,0.46-1.256,0.91-1.636,1.578
					c-0.254,0.452-0.456,0.969-0.645,1.449c-0.183,0.573-0.455,1.172-0.859,1.652c-0.342,0.406-0.774,0.726-1.327,0.88
					c-0.111-0.006-0.283,0.08-0.358-0.043c-0.021-0.072,0.017-0.129,0.067-0.172c0.355-0.146,0.645-0.381,0.869-0.665
					c0.197-0.25,0.348-0.54,0.454-0.836c0.364-1.047,0.618-2.146,1.187-3.113c0.285-0.519,0.634-0.983,1.023-1.413l-1.457,0.001
					c-0.439,0.557-0.748,1.189-0.994,1.82c-0.299,0.868-0.492,1.771-0.739,2.655c-0.038,0.216-0.164,0.388-0.239,0.58
					c-0.08,0.111-0.178,0.25-0.309,0.305c-0.053,0.021-0.112,0.033-0.177,0.02c-0.016-0.005-0.029-0.012-0.042-0.02
					c-0.197-0.098-0.312-0.312-0.354-0.504c-0.403-1.729,0.455-3.272,1.562-4.535c0.094-0.108,0.188-0.215,0.284-0.322h-3.634
					c-1.315,1.008-2.681,1.977-3.629,3.352c-0.239,0.302-0.456,0.658-0.612,1.032c-0.169,0.308-0.309,0.636-0.417,0.979
					c-0.269,0.849-0.35,1.785-0.222,2.681c0.091,0.632,0.287,1.244,0.594,1.787c0.158,0.316,0.354,0.614,0.577,0.896
					c0.938,1.167,2.393,2.013,3.74,2.526c1.531,0.609,3.129,1.011,4.788,1.206l0.03,0.029c0.202,0.497,0.341,1.044,0.377,1.598
					c0.031,0.518-0.021,1.038-0.191,1.529c-0.021,0.06-0.075,0.124-0.051,0.195c0.253-0.088,0.506-0.26,0.692-0.438
					c0.145-0.093,0.208-0.236,0.329-0.352c0.03-0.009,0.044,0.008,0.061,0.027c0.219,1.517,0.585,2.994,1.155,4.397H35.1
					c-0.377-1.353-0.633-2.729-0.742-4.147c0-0.025,0-0.069,0.037-0.057c0.358,0.258,0.755,0.416,1.195,0.479
					c0.216,0.029,0.478,0.035,0.62-0.13c-0.203-0.18-0.462-0.338-0.657-0.521c-0.291-0.296-0.533-0.629-0.724-0.986
					c-0.504-0.946-0.659-2.064-0.442-3.133c-0.462-0.36-0.866-0.704-1.292-1.077c-0.391-0.368-0.784-0.749-1.146-1.148v-0.003
					c-0.719-0.792-1.316-1.663-1.535-2.681c-0.021-0.093-0.037-0.186-0.051-0.279c0.008-0.149-0.066-0.352,0.061-0.479
					c0.021-0.007,0.066-0.014,0.083,0.008c0.092,0.253,0.193,0.506,0.307,0.753c0.133,0.293,0.282,0.582,0.447,0.862
					c0.384,0.683,0.919,1.266,1.505,1.816h0.001c0.934,0.881,1.989,1.677,2.744,2.658c0.292,0.366,0.5,0.781,0.688,1.206
					c0.155,0.473,0.266,0.982,0.286,1.497l0.378-0.001c0.258-1.431-0.174-2.86-1.029-4.016c-0.412-0.503-0.881-0.938-1.367-1.347
					V23.84c-1.022-0.861-2.117-1.615-2.896-2.68c-0.108-0.152-0.214-0.309-0.311-0.473c-0.044-0.108-0.157-0.251-0.029-0.359
					c0.029-0.008,0.075-0.014,0.104,0.008l0.388,0.401c0.16,0.146,0.324,0.287,0.491,0.423c1.104,0.889,2.398,1.5,3.924,1.457
					c0.889-0.114,1.688-0.552,2.33-1.163l0.021-0.085c-0.015-0.036-0.044-0.058-0.072-0.062c-0.745,0.026-1.462-0.026-2.154-0.146
					c-0.529-0.093-1.044-0.222-1.543-0.38c-0.456-0.172-0.911-0.323-1.322-0.588c-0.007-0.036-0.007-0.085,0.017-0.114
					c0.865-0.029,1.814-0.314,2.3-1.084c-0.007-0.05,0.039-0.13-0.037-0.148c-0.688,0.049-1.435,0.057-2.099-0.08
					c-0.054,0-0.067-0.043-0.067-0.085c0.008-0.03,0.045-0.043,0.067-0.065c0.337-0.02,0.668-0.062,0.983-0.136
					c0.536-0.124,1.035-0.34,1.475-0.685c0.133-0.1,0.17-0.258,0.297-0.352c0.066-0.129,0.18-0.258,0.104-0.416
					c-0.762,0.121-1.508,0.308-2.264,0.344c-0.188,0.006-0.417,0.015-0.604-0.014c-0.035-0.043,0-0.094,0.029-0.123
					c0.437-0.115,0.874-0.188,1.285-0.345c0.583-0.208,1.165-0.425,1.591-0.911c0.101-0.201,0.299-0.396,0.21-0.632
					c-0.038-0.034-0.075-0.064-0.136-0.051c-0.836,0.338-1.717,0.598-2.636,0.746c-0.12-0.007-0.248,0.079-0.336-0.021
					c-0.062-0.06,0.052-0.043,0.035-0.095c0.966-0.315,1.93-0.615,2.713-1.3c0.275-0.286,0.517-0.667,0.439-1.062
					c-0.021-0.059-0.074-0.115-0.148-0.108c-0.673,0.311-1.345,0.61-2.062,0.826c-0.09,0-0.171,0.094-0.262,0.021
					c-0.022-0.029-0.022-0.079,0.008-0.102c0.561-0.375,1.132-0.729,1.703-1.089h0.001c0.539-0.338,1.077-0.68,1.604-1.042
					c0.366-0.266,0.747-0.558,1.119-0.826c1.697-1.284,3.221-2.892,4.461-4.636c0.165-0.229,0.308-0.473,0.479-0.696
					c0.647-1.146,1.356-2.303,1.61-3.607C45.376,1.583,45.123,0.829,44.615,0.263z M29.167,24.493
					c-0.517-0.157-1.021-0.375-1.495-0.646c-0.716-0.415-1.361-0.958-1.859-1.618c-0.249-0.325-0.458-0.684-0.622-1.062
					c-0.357-0.838-0.497-1.778-0.37-2.68c0.058-0.403,0.166-0.799,0.333-1.173c0.231-0.508,0.53-1.012,0.875-1.448
					c0.32-0.352,0.635-0.726,1.062-0.998c0.037,0,0.075,0,0.089,0.036v0.071c-0.247,0.353-0.449,0.701-0.627,1.09
					c-0.353,0.76-0.597,1.592-0.629,2.421c-0.007,0.175-0.003,0.348,0.009,0.521c0.043,0.771,0.225,1.487,0.521,2.159
					c0.175,0.398,0.392,0.78,0.646,1.148c0.089,0.101,0.149,0.229,0.254,0.309c0.361,0.467,0.804,0.869,1.272,1.227h0.001
					c0.259,0.193,0.525,0.377,0.795,0.547c0.061,0.05,0.179,0.094,0.164,0.173C29.451,24.651,29.301,24.522,29.167,24.493z"/>
			</g>
			<g>
				<path fill="#EAC379" d="M32.02,10.868c0.381-0.61,0.518-1.484,0.09-2.095c-0.128-0.28-0.402-0.481-0.673-0.604
					c-0.021-0.028-0.021-0.063,0-0.094c0.24-0.058,0.456,0.051,0.682,0.059c0.536,0.063,1.128-0.015,1.604-0.2
					c0.314-0.151,0.664-0.375,0.754-0.721c0.022-0.122,0.09-0.301-0.052-0.395c-0.112-0.042-0.082,0.101-0.135,0.144
					c-0.246,0.25-0.628,0.354-0.993,0.354c-0.889-0.086-1.695-0.354-2.51-0.61c-0.588-0.171-1.156-0.365-1.762-0.473
					c-0.642-0.065-1.516-0.215-1.942,0.367c-0.089,0.143-0.051,0.301,0.022,0.443C26.747,7.079,26.373,7.064,26,7.101
					c-0.09-0.261-0.17-0.512-0.291-0.747c-0.21,0.044-0.411,0.114-0.644,0.086c0.182,0.223,0.321,0.467,0.366,0.74
					c-0.515,0.149-1.091,0.32-1.396,0.772c-0.062,0.151-0.193,0.295-0.157,0.46c0.5-0.207,1.021-0.372,1.604-0.403l0.03,0.021
					c0,0.273-0.075,0.56-0.164,0.818c-0.239,0.065-0.478,0.031-0.71,0.051c0.015,0.035-0.038,0.072-0.021,0.115
					c0.036,0.259,0.365,0.235,0.509,0.352c-0.143,0.274-0.322,0.561-0.546,0.783c-0.218-0.194-0.507-0.359-0.808-0.345
					c-0.572-0.051-1.007,0.374-1.521,0.51c-0.119,0.043-0.253-0.036-0.358-0.06c-0.045,0.138,0.052,0.281,0.171,0.365
					c0.1,0.037,0.182,0.13,0.284,0.109c0.144,0.069,0.344,0.062,0.523,0.057c0.396-0.036,0.687-0.308,1.053-0.43
					c0.157-0.021,0.321-0.123,0.478-0.029c-0.027,0.103-0.154,0.159-0.237,0.237c-0.5,0.351-1.12,0.516-1.449,1.066
					c-0.082,0.217-0.089,0.476,0.008,0.69c0.165,0.25,0.448,0.394,0.754,0.352c0-0.035-0.021-0.063-0.037-0.095
					c-0.128-0.394,0.313-0.652,0.568-0.883c0.178-0.192,0.305-0.479,0.172-0.738c0.171-0.135,0.335-0.264,0.522-0.394
					c0.104,0.258,0.246,0.502,0.479,0.71c0.271,0.223,0.679,0.312,1.016,0.164c0.403-0.171,0.809-0.573,0.777-1.026
					c-0.195,0.194-0.449,0.331-0.73,0.38c-0.12-0.136-0.226-0.215-0.366-0.337c-0.247-0.179-0.575-0.236-0.89-0.179
					c0.27-0.301,0.472-0.624,0.674-0.962c0.47-0.042,0.938-0.135,1.409-0.245c0.591-0.111,1.301-0.083,1.681,0.405
					c0.073,0.081,0.132,0.195,0.19,0.316c0.255,0.698-0.192,1.335-0.679,1.832c-0.553,0.54-1.164,1.023-1.786,1.499l3.632-0.001
					C30.776,12.383,31.498,11.684,32.02,10.868z M25.908,8.8c0.034-0.098,0.09-0.271,0.125-0.449
					c0.026-0.142,0.041-0.165,0.05-0.361c0.75-0.001,1.119,0.026,1.119,0.253C27.202,8.554,26.514,8.717,25.908,8.8z M29.413,7.559
					c-0.381,0.043-0.719,0.18-1.1,0.208c-0.11,0-0.216-0.016-0.306-0.078c-0.118-0.107-0.126-0.287-0.081-0.424
					c0.044-0.079,0.165-0.021,0.247-0.021c0.418,0.072,0.843,0.136,1.239,0.253C29.437,7.51,29.421,7.538,29.413,7.559z"/>
			</g>
			<g>
				<path fill="#EAC379" d="M31.468,12.727c-0.126,0.128-0.243,0.259-0.352,0.395l1.457-0.001c0.91-1.006,2.047-1.827,3.1-2.711
					c0.276-0.188,0.538-0.445,0.807-0.646c1.271-1.091,2.475-2.331,3.332-3.73c0.329-0.575,0.612-1.177,0.693-1.837
					c0.143-0.771,0.019-1.647-0.656-2.067c-0.229-0.143-0.463-0.364-0.754-0.329c-0.06,0.016-0.09,0.064-0.067,0.122
					c0.366,0.501,0.466,1.241,0.276,1.829c-0.434,1.493-1.345,2.807-2.406,4.013c-1.374,1.643-3.188,2.869-4.794,4.312
					C31.893,12.289,31.632,12.482,31.468,12.727z"/>
			</g>
			<g>
				<path fill="#EAC379" d="M40.496,5.292c-0.146,0.4-0.56,1.197-0.803,1.546c-0.177,0.252-0.498,0.754-0.703,0.995
					c-0.276,0.321-0.832,0.959-1.135,1.257c-0.385,0.384-1.218,1.083-1.626,1.44c-0.701,0.612-2.167,1.765-2.819,2.427
					c-0.126,0.128-0.437,0.375-0.462,0.553c-0.008,0.041,0.026,0.131,0.062,0.152c0.04,0.027,0.148,0.019,0.193,0
					c0.086-0.032,0.388-0.367,0.458-0.425c0.54-0.433,1.472-1.076,2.022-1.484c0.473-0.349,1.444-1.015,1.906-1.381
					c0.452-0.356,1.286-1.162,1.662-1.6c0.379-0.441,1.147-1.378,1.45-1.878c0.258-0.432,0.649-1.297,0.77-1.785
					c0.062-0.255-0.002-0.86-0.064-1.115c-0.055-0.213-0.214-0.695-0.433-0.719c-0.018-0.001-0.101-0.089-0.101,0.222
					c0,0.194,0.034,0.435-0.003,0.625C40.813,4.43,40.604,4.995,40.496,5.292z"/>
			</g>
		</g>
	</g>
</g>
</svg>
